<?xml version="1.0" encoding="utf-8"?>
<!-- Generator: Adobe Illustrator 16.0.0, SVG Export Plug-In . SVG Version: 6.00 Build 0)  -->
<!DOCTYPE svg PUBLIC "-//W3C//DTD SVG 1.1//EN" "http://www.w3.org/Graphics/SVG/1.1/DTD/svg11.dtd">
<svg version="1.1" id="Calque_1" xmlns="http://www.w3.org/2000/svg" xmlns:xlink="http://www.w3.org/1999/xlink" x="0px" y="0px"
	 width="53px" height="41px" viewBox="0 0 53 41" enable-background="new 0 0 53 41" xml:space="preserve">
<path fill="#FFFFFF" d="M14.251,5.956c0-1.067-0.002-2.037,0-3.006c0.005-1.702,0.804-2.5,2.519-2.5
	c6.364-0.003,12.728-0.004,19.092-0.001c1.692,0.001,2.485,0.812,2.49,2.528c0.002,0.948,0,1.897,0,2.937
	c0.327,0.015,0.608,0.04,0.89,0.04c3.56,0.002,7.119,0.003,10.679-0.001c1.991-0.003,2.679,0.677,2.679,2.677
	c0.003,9.947,0.005,19.895,0.005,29.843c0,1.783-0.74,2.527-2.545,2.527c-15.822,0.001-31.646-0.001-47.471-0.006
	c-1.888-0.001-2.582-0.705-2.583-2.622C0,28.399-0.001,18.428,0.001,8.456c0.001-1.748,0.743-2.491,2.491-2.495
	C6.076,5.953,9.66,5.957,13.245,5.956C13.555,5.956,13.865,5.956,14.251,5.956 M16.406,2.633c0,0.947,0,1.821,0,2.694
	c0.002,2.055-0.707,2.755-2.77,2.753C10.054,8.076,6.47,8.092,2.887,8.065C2.269,8.061,2.11,8.262,2.111,8.859
	c0.017,9.726,0.02,19.453-0.001,29.179c-0.002,0.683,0.206,0.851,0.866,0.85c15.577-0.017,31.154-0.016,46.73-0.001
	c0.603,0,0.789-0.168,0.787-0.777c-0.019-9.727-0.023-19.454,0-29.18c0.002-0.738-0.242-0.875-0.92-0.869
	c-3.633,0.032-7.265,0.02-10.897,0.012c-1.71-0.004-2.481-0.8-2.48-2.522c0-0.965,0-1.93,0-2.918H16.406z"/>
<path fill="#FFFFFF" d="M41.63,22.378c0.021,8.43-6.848,15.33-15.276,15.347c-8.456,0.017-15.361-6.825-15.379-15.236
	c-0.018-8.555,6.807-15.447,15.307-15.457C34.756,7.021,41.607,13.873,41.63,22.378 M26.27,35.564
	c7.339-0.008,13.232-5.865,13.236-13.154c0.003-7.351-5.878-13.22-13.247-13.218c-7.298,0.002-13.167,5.901-13.157,13.227
	C13.111,29.688,19.006,35.572,26.27,35.564"/>
<path fill="#FFFFFF" d="M48.211,13.559c0.01,1.829-1.45,3.297-3.274,3.291c-1.807-0.006-3.22-1.425-3.232-3.247
	c-0.014-1.792,1.433-3.249,3.23-3.256C46.736,10.34,48.201,11.776,48.211,13.559 M46.076,13.618
	c0.008-0.615-0.487-1.127-1.101-1.136c-0.612-0.01-1.126,0.487-1.137,1.1c-0.01,0.61,0.483,1.122,1.101,1.139
	C45.536,14.738,46.067,14.221,46.076,13.618"/>
</svg>
