<?xml version="1.0" standalone="no"?>
<!DOCTYPE svg PUBLIC "-//W3C//DTD SVG 20010904//EN"
 "http://www.w3.org/TR/2001/REC-SVG-20010904/DTD/svg10.dtd">
<svg version="1.0" xmlns="http://www.w3.org/2000/svg"
 width="350.000000pt" height="350.000000pt" viewBox="0 0 350.000000 350.000000"
 preserveAspectRatio="xMidYMid meet">
<metadata>
Created by potrace 1.11, written by Peter Selinger 2001-2013
</metadata>
<g transform="translate(0.000000,350.000000) scale(0.100000,-0.100000)"
fill="#000000" stroke="none">
<path d="M1455 3480 c-128 -24 -234 -52 -325 -88 -36 -14 -67 -26 -69 -28 -2
-2 110 -226 247 -498 l251 -496 -78 0 c-210 0 -388 -123 -452 -314 -16 -47
-20 -50 -71 -66 -77 -24 -127 -52 -185 -104 -104 -94 -156 -214 -156 -361 0
-199 98 -351 283 -439 l65 -31 390 -3 391 -3 202 -406 c112 -223 202 -406 200
-408 -11 -10 -165 -37 -267 -47 -202 -19 -421 8 -631 79 -459 154 -833 529
-985 987 -180 541 -60 1114 324 1545 75 85 207 198 304 260 l66 43 -41 82
c-22 44 -42 83 -44 85 -1 1 -40 -21 -86 -51 -386 -252 -658 -652 -760 -1119
-20 -91 -22 -133 -23 -344 0 -195 3 -256 18 -325 80 -376 234 -668 487 -920
268 -268 599 -435 985 -495 160 -25 466 -16 620 18 139 31 335 97 335 112 0 3
-101 205 -225 448 -124 244 -225 447 -225 450 0 4 107 7 238 7 256 0 295 6
391 54 249 127 329 457 169 696 -41 62 -116 130 -174 158 -31 14 -31 15 -37
106 -11 202 -119 349 -315 428 -49 19 -75 23 -182 23 -115 0 -130 -2 -183 -27
-32 -15 -72 -37 -88 -49 -17 -12 -31 -20 -33 -18 -6 8 -426 839 -426 843 0 10
149 37 265 48 335 32 697 -63 993 -260 541 -360 809 -1034 658 -1657 -94 -386
-331 -730 -647 -939 -41 -27 -76 -51 -77 -52 -5 -4 82 -164 89 -164 16 0 163
104 247 174 318 267 537 662 598 1080 24 165 15 470 -19 622 -154 686 -665
1197 -1351 1351 -95 21 -142 25 -331 29 -188 3 -236 1 -330 -16z m757 -1170
c71 -27 132 -81 163 -145 29 -58 29 -64 9 -235 -8 -73 12 -99 96 -124 79 -24
158 -93 190 -168 49 -114 20 -240 -76 -327 -93 -85 -54 -81 -845 -81 -681 0
-700 1 -754 21 -66 24 -132 87 -165 156 -31 64 -33 168 -3 234 45 101 129 162
249 178 83 12 101 29 114 105 12 78 42 137 92 181 111 101 242 108 378 20 89
-58 134 -47 179 43 46 91 109 142 206 166 33 8 114 -4 167 -24z"/>
<path d="M1545 1718 c-148 -146 -165 -166 -165 -196 0 -45 38 -82 85 -82 31 0
47 12 143 104 59 58 120 108 135 111 25 7 39 -4 146 -109 128 -125 146 -134
195 -95 20 16 26 29 26 61 0 37 -7 48 -121 166 -196 205 -193 202 -238 202
-38 0 -47 -8 -206 -162z"/>
</g>
</svg>
