<?xml version="1.0" standalone="no"?>
<!DOCTYPE svg PUBLIC "-//W3C//DTD SVG 20010904//EN"
 "http://www.w3.org/TR/2001/REC-SVG-20010904/DTD/svg10.dtd">
<svg version="1.0" xmlns="http://www.w3.org/2000/svg"
 width="86.000000pt" height="86.000000pt" viewBox="0 0 86.000000 86.000000"
 preserveAspectRatio="xMidYMid meet">
<metadata>
Created by potrace 1.11, written by Peter Selinger 2001-2013
</metadata>
<g transform="translate(0.000000,86.000000) scale(0.100000,-0.100000)"
fill="#000000" stroke="none">
<path d="M335 850 c-82 -21 -88 5 69 -305 128 -254 143 -280 166 -280 l25 0 3
168 2 168 -27 -3 -28 -3 0 -92 c0 -50 -2 -94 -5 -97 -3 -3 -50 84 -105 194
-55 110 -97 202 -93 205 12 12 122 12 172 1 248 -59 373 -329 256 -556 -13
-25 -49 -70 -81 -102 -50 -48 -56 -58 -45 -73 11 -15 18 -12 69 35 90 82 134
171 144 290 17 207 -131 406 -335 449 -59 12 -142 13 -187 1z"/>
<path d="M145 749 c-65 -60 -100 -115 -126 -200 -94 -301 185 -603 496 -539
33 7 66 15 73 19 9 5 -25 82 -130 289 -135 268 -144 282 -170 282 l-28 0 2
-167 3 -168 25 0 c25 0 25 1 27 90 1 50 2 97 2 105 1 8 48 -77 106 -190 57
-113 100 -209 95 -214 -4 -4 -37 -9 -72 -10 -152 -6 -294 77 -361 211 -80 158
-43 343 91 463 37 33 51 52 46 63 -9 25 -17 22 -79 -34z"/>
</g>
</svg>
