<?xml version="1.0" encoding="UTF-8" standalone="no"?>
<!DOCTYPE svg PUBLIC "-//W3C//DTD SVG 1.1//EN" "http://www.w3.org/Graphics/SVG/1.1/DTD/svg11.dtd">
<svg xmlns="http://www.w3.org/2000/svg" version="1.1" viewBox="0 0 50 58">
<path fill="#fefeff" d="
  M 7.06 0.00
  L 45.81 0.00
  Q 48.99 1.12 50.00 4.31
  L 50.00 53.81
  Q 48.91 56.99 45.69 58.00
  L 6.94 58.00
  C 1.29 56.16 2.62 50.06 2.79 45.45
  Q 2.81 44.85 2.21 44.81
  Q 0.98 44.73 0.00 44.19
  L 0.00 42.94
  Q 0.78 42.24 1.88 42.20
  Q 2.29 42.19 2.43 41.81
  Q 4.26 36.75 0.09 34.72
  L 0.00 33.69
  L 1.88 32.94
  Q 2.28 32.78 2.42 32.37
  Q 4.25 27.29 0.07 25.52
  L 0.00 24.69
  Q 0.77 23.63 2.20 23.70
  Q 2.85 23.73 2.78 23.08
  C 2.63 21.67 3.43 16.51 1.21 17.02
  Q 0.68 17.14 0.37 16.70
  L 0.00 16.19
  L 0.00 15.19
  L 0.55 14.69
  Q 0.95 14.31 1.48 14.47
  C 2.53 14.79 2.82 14.19 2.78 13.25
  C 2.61 8.60 1.16 1.69 7.06 0.00
  Z
  M 5.67 3.79
  L 5.15 5.87
  Q 5.00 6.49 5.64 6.49
  L 47.05 6.51
  Q 47.52 6.51 47.50 6.04
  Q 47.44 4.33 46.28 3.16
  Q 45.88 2.75 45.30 2.75
  L 7.00 2.75
  Q 5.93 2.75 5.67 3.79
  Z
  M 7.34 26.14
  L 5.73 26.43
  Q 5.25 26.52 5.25 27.01
  L 5.25 32.20
  Q 5.25 32.66 5.69 32.78
  L 7.21 33.18
  Q 7.75 33.33 7.75 33.89
  L 7.75 34.63
  Q 7.75 35.50 6.87 35.50
  L 5.88 35.50
  Q 5.25 35.50 5.25 36.13
  L 5.25 41.62
  Q 5.25 42.03 5.65 42.12
  L 7.32 42.51
  Q 7.94 42.65 7.87 43.29
  Q 7.64 45.20 5.98 44.71
  Q 5.25 44.49 5.25 45.25
  L 5.25 48.12
  Q 5.25 48.75 5.88 48.75
  L 46.76 48.75
  Q 47.27 48.75 47.27 48.24
  L 47.26 9.54
  Q 47.26 9.25 46.97 9.25
  L 6.00 9.25
  Q 5.25 9.25 5.25 10.00
  L 5.25 13.63
  Q 5.25 14.29 5.89 14.42
  L 7.14 14.66
  Q 7.60 14.76 7.71 15.22
  C 8.13 16.86 6.90 17.12 5.68 17.29
  Q 5.25 17.34 5.25 17.78
  L 5.25 23.13
  Q 5.25 23.75 5.87 23.75
  L 6.97 23.75
  Q 7.63 23.75 7.68 24.40
  L 7.77 25.59
  Q 7.81 26.06 7.34 26.14
  Z
  M 42.30 55.35
  C 45.22 55.28 47.52 55.52 47.44 51.91
  A 0.42 0.42 0.0 0 0 47.02 51.50
  L 5.78 51.50
  Q 5.34 51.50 5.29 51.93
  C 4.99 54.20 6.07 55.22 8.36 55.29
  Q 25.34 55.76 42.30 55.35
  Z"
/>
<path fill="#fefeff" d="
  M 32.85 21.08
  A 6.54 6.54 0.0 0 1 26.31 27.62
  A 6.54 6.54 0.0 0 1 19.77 21.08
  A 6.54 6.54 0.0 0 1 26.31 14.54
  A 6.54 6.54 0.0 0 1 32.85 21.08
  Z
  M 30.20 21.10
  A 3.88 3.88 0.0 0 0 26.32 17.22
  A 3.88 3.88 0.0 0 0 22.44 21.10
  A 3.88 3.88 0.0 0 0 26.32 24.98
  A 3.88 3.88 0.0 0 0 30.20 21.10
  Z"
/>
<path fill="#fefeff" d="
  M 14.40 41.75
  C 16.30 26.30 36.85 26.90 38.24 41.88
  A 1.49 1.48 -2.6 0 1 36.76 43.50
  L 15.95 43.50
  A 1.56 1.56 0.0 0 1 14.40 41.75
  Z
  M 35.46 40.29
  C 32.73 30.90 19.58 30.45 17.27 40.16
  Q 17.13 40.72 17.71 40.73
  L 35.07 40.80
  A 0.40 0.40 0.0 0 0 35.46 40.29
  Z"
/>
</svg>
