<?xml version="1.0" encoding="UTF-8" standalone="no"?>
<!DOCTYPE svg PUBLIC "-//W3C//DTD SVG 1.1//EN" "http://www.w3.org/Graphics/SVG/1.1/DTD/svg11.dtd">
<svg xmlns="http://www.w3.org/2000/svg" version="1.1" viewBox="0 0 50 58">
<path fill="#21366c" d="
  M 7.06 0.00
  L 45.56 0.00
  Q 48.97 0.93 50.00 4.31
  L 50.00 53.56
  Q 49.05 57.13 45.44 58.00
  L 6.94 58.00
  C 1.19 56.20 2.77 50.05 2.74 45.45
  Q 2.74 44.91 2.20 44.86
  Q 0.90 44.75 0.00 43.94
  L 0.00 42.94
  Q 0.82 42.28 1.90 42.20
  Q 2.30 42.17 2.43 41.79
  Q 4.26 36.75 0.10 34.71
  Q -0.06 34.18 0.00 33.69
  Q 0.97 33.02 2.21 32.88
  Q 2.75 32.82 2.75 32.27
  L 2.75 26.97
  Q 2.75 26.37 2.15 26.35
  Q 0.84 26.31 0.00 25.44
  Q -0.06 25.11 0.07 24.62
  Q 4.32 22.66 2.38 17.54
  Q 2.23 17.13 1.79 17.10
  Q 0.63 17.03 0.00 16.19
  L 0.00 15.19
  Q 0.97 14.46 2.23 14.47
  Q 2.74 14.47 2.74 13.96
  C 2.77 9.17 0.95 1.70 7.06 0.00
  Z
  M 5.22 4.51
  A 1.24 1.23 18.5 0 0 6.21 6.49
  L 46.58 6.52
  Q 47.29 6.52 47.41 5.82
  C 47.74 3.93 46.15 2.68 44.29 2.65
  Q 27.36 2.36 10.45 2.54
  C 7.52 2.57 6.87 2.32 5.22 4.51
  Z
  M 7.78 43.99
  Q 7.11 44.96 5.91 44.72
  Q 5.25 44.59 5.25 45.27
  L 5.25 48.13
  Q 5.25 48.75 5.88 48.75
  L 46.99 48.75
  A 0.30 0.30 0.0 0 0 47.29 48.45
  L 47.26 9.54
  A 0.29 0.29 0.0 0 0 46.97 9.25
  L 6.00 9.25
  Q 5.25 9.25 5.25 10.00
  L 5.25 13.98
  Q 5.25 14.66 5.91 14.53
  Q 7.77 14.18 7.82 16.11
  Q 7.83 16.85 7.10 16.93
  L 5.85 17.05
  Q 5.25 17.12 5.25 17.72
  L 5.25 23.13
  Q 5.25 23.75 5.87 23.75
  L 7.02 23.75
  Q 7.79 23.75 7.76 24.52
  L 7.73 25.49
  Q 7.70 26.25 6.94 26.25
  L 5.88 26.25
  Q 5.25 26.25 5.25 26.88
  L 5.25 32.22
  Q 5.25 32.95 5.98 32.99
  L 7.02 33.04
  Q 7.78 33.08 7.76 33.84
  L 7.73 34.74
  Q 7.70 35.50 6.94 35.50
  L 5.88 35.50
  Q 5.25 35.50 5.25 36.13
  L 5.25 41.77
  Q 5.25 42.36 5.83 42.25
  Q 7.04 42.04 7.75 42.97
  Q 8.14 43.47 7.78 43.99
  Z
  M 47.04 51.49
  L 5.84 51.49
  Q 5.38 51.49 5.30 51.95
  C 4.94 54.04 5.98 55.11 8.12 55.16
  Q 26.03 55.63 43.94 55.48
  Q 47.52 55.45 47.48 51.92
  A 0.44 0.44 0.0 0 0 47.04 51.49
  Z"
/>
<path fill="#21366c" d="
  M 32.84 21.07
  A 6.53 6.53 0.0 0 1 26.31 27.60
  A 6.53 6.53 0.0 0 1 19.78 21.07
  A 6.53 6.53 0.0 0 1 26.31 14.54
  A 6.53 6.53 0.0 0 1 32.84 21.07
  Z
  M 30.23 21.08
  A 3.89 3.89 0.0 0 0 26.34 17.19
  A 3.89 3.89 0.0 0 0 22.45 21.08
  A 3.89 3.89 0.0 0 0 26.34 24.97
  A 3.89 3.89 0.0 0 0 30.23 21.08
  Z"
/>
<path fill="#21366c" d="
  M 14.39 41.68
  C 16.56 26.03 37.71 27.09 38.20 42.46
  A 1.01 1.00 89.2 0 1 37.20 43.50
  L 15.97 43.50
  A 1.60 1.60 0.0 0 1 14.39 41.68
  Z
  M 35.31 40.12
  C 32.57 30.71 19.69 30.60 17.28 40.17
  Q 17.14 40.73 17.71 40.73
  L 34.81 40.79
  Q 35.50 40.79 35.31 40.12
  Z"
/>
</svg>
