<?xml version="1.0" encoding="UTF-8" standalone="no"?>
<!DOCTYPE svg PUBLIC "-//W3C//DTD SVG 1.1//EN" "http://www.w3.org/Graphics/SVG/1.1/DTD/svg11.dtd">
<svg xmlns="http://www.w3.org/2000/svg" version="1.1" viewBox="0 0 60 61">
<path fill="#21356a" d="
  M 7.56 0.00
  L 52.56 0.00
  C 56.46 1.10 57.48 3.65 57.49 7.66
  Q 57.52 17.82 57.49 28.04
  Q 57.49 28.54 57.84 28.90
  Q 59.42 30.55 60.00 32.81
  L 60.00 55.56
  Q 58.87 59.78 54.69 61.00
  L 5.44 61.00
  Q 1.09 59.83 0.00 55.44
  L 0.00 32.69
  Q 0.66 30.34 2.39 28.68
  Q 2.76 28.32 2.76 27.81
  Q 2.74 16.64 2.75 5.49
  Q 2.75 1.36 7.56 0.00
  Z
  M 12.23 20.24
  C 12.27 18.20 11.29 14.54 14.47 14.74
  Q 15.50 14.80 15.50 13.77
  L 15.50 10.12
  Q 15.50 8.50 17.13 8.50
  L 43.55 8.50
  Q 44.11 8.50 44.39 8.98
  C 45.28 10.51 44.09 15.54 46.31 14.72
  A 1.04 1.04 0.0 0 1 47.71 15.68
  L 47.77 20.20
  Q 47.77 20.64 48.21 20.69
  L 49.96 20.90
  Q 50.66 20.98 50.67 21.69
  L 50.78 26.77
  Q 50.79 27.25 51.27 27.25
  L 53.27 27.25
  Q 54.04 27.25 54.03 26.48
  L 53.98 5.04
  A 1.45 1.45 0.0 0 0 52.64 3.59
  C 40.49 2.63 28.53 3.70 9.50 3.21
  Q 7.77 3.16 6.58 4.43
  Q 6.25 4.78 6.25 5.26
  L 6.25 26.76
  Q 6.25 27.27 6.76 27.26
  L 8.61 27.23
  Q 9.34 27.22 9.10 26.52
  Q 8.18 23.82 9.33 21.30
  Q 9.58 20.75 10.19 20.75
  L 11.71 20.75
  Q 12.22 20.75 12.23 20.24
  Z
  M 41.59 12.18
  A 0.43 0.43 0.0 0 0 41.16 11.75
  L 19.20 11.75
  A 0.43 0.43 0.0 0 0 18.77 12.18
  L 18.77 14.10
  A 0.43 0.43 0.0 0 0 19.20 14.53
  L 41.16 14.53
  A 0.43 0.43 0.0 0 0 41.59 14.10
  L 41.59 12.18
  Z
  M 44.48 18.47
  A 0.48 0.48 0.0 0 0 44.00 17.99
  L 16.02 17.99
  A 0.48 0.48 0.0 0 0 15.54 18.47
  L 15.54 20.27
  A 0.48 0.48 0.0 0 0 16.02 20.75
  L 44.00 20.75
  A 0.48 0.48 0.0 0 0 44.48 20.27
  L 44.48 18.47
  Z
  M 47.46 24.68
  A 0.45 0.45 0.0 0 0 47.01 24.23
  L 12.71 24.23
  A 0.45 0.45 0.0 0 0 12.26 24.68
  L 12.26 26.80
  A 0.45 0.45 0.0 0 0 12.71 27.25
  L 47.01 27.25
  A 0.45 0.45 0.0 0 0 47.46 26.80
  L 47.46 24.68
  Z
  M 56.51 33.85
  A 3.35 3.35 0.0 0 0 53.16 30.50
  L 6.62 30.50
  A 3.35 3.35 0.0 0 0 3.27 33.85
  L 3.27 54.41
  A 3.35 3.35 0.0 0 0 6.62 57.76
  L 53.16 57.76
  A 3.35 3.35 0.0 0 0 56.51 54.41
  L 56.51 33.85
  Z"
/>
<path fill="#21356a" d="
  M 37.31 42.28
  A 1.04 1.03 84.5 0 1 38.10 41.31
  C 41.34 40.52 40.52 45.89 40.49 47.55
  A 1.23 1.23 0.0 0 1 39.26 48.75
  L 21.10 48.75
  A 1.01 1.00 -7.5 0 1 20.13 48.01
  Q 19.30 45.10 20.07 42.19
  Q 20.21 41.68 20.69 41.48
  Q 22.15 40.87 23.00 42.19
  Q 23.25 42.59 23.25 43.05
  L 23.25 44.75
  Q 23.25 45.50 24.00 45.50
  L 36.60 45.50
  Q 37.20 45.50 37.22 44.90
  L 37.31 42.28
  Z"
/>
</svg>
