<?xml version="1.0" encoding="UTF-8" standalone="no"?>
<!DOCTYPE svg PUBLIC "-//W3C//DTD SVG 1.1//EN" "http://www.w3.org/Graphics/SVG/1.1/DTD/svg11.dtd">
<svg xmlns="http://www.w3.org/2000/svg" version="1.1" viewBox="0 0 60 61">
<path fill="#fefefe" d="
  M 7.81 0.00
  L 52.56 0.00
  C 56.53 1.06 57.51 3.61 57.50 7.65
  Q 57.49 17.80 57.50 27.98
  Q 57.50 28.48 57.83 28.85
  Q 59.53 30.80 60.00 33.31
  L 60.00 55.81
  Q 58.71 59.81 54.69 61.00
  L 5.19 61.00
  Q 1.04 59.66 0.00 55.44
  L 0.00 32.69
  Q 0.67 30.37 2.40 28.64
  Q 2.75 28.28 2.75 27.78
  Q 2.74 17.71 2.76 7.69
  C 2.76 3.58 3.67 0.93 7.81 0.00
  Z
  M 8.93 26.66
  C 9.25 24.63 7.66 20.16 11.60 20.76
  Q 12.19 20.85 12.22 20.25
  C 12.31 18.51 11.30 13.84 14.77 14.81
  Q 15.50 15.01 15.50 14.25
  L 15.50 10.25
  A 1.75 1.75 0.0 0 1 17.25 8.50
  L 43.52 8.50
  Q 44.12 8.50 44.41 9.03
  Q 45.56 11.15 44.72 13.48
  Q 44.19 14.95 45.97 14.52
  C 48.31 13.97 47.71 19.09 47.78 20.28
  Q 47.80 20.73 48.26 20.74
  L 49.90 20.77
  Q 50.58 20.79 50.61 21.46
  L 50.82 26.67
  Q 50.84 27.25 51.42 27.25
  L 53.47 27.25
  Q 54.08 27.25 54.10 26.64
  Q 54.38 17.86 54.15 6.44
  C 54.12 4.52 53.35 3.54 51.33 3.53
  Q 29.93 3.46 8.46 3.31
  A 2.19 2.19 0.0 0 0 6.25 5.50
  L 6.25 26.75
  Q 6.25 27.25 6.75 27.25
  L 8.23 27.25
  Q 8.83 27.25 8.93 26.66
  Z
  M 41.50 12.26
  A 0.51 0.51 0.0 0 0 40.99 11.75
  L 19.27 11.75
  A 0.51 0.51 0.0 0 0 18.76 12.26
  L 18.76 14.24
  A 0.51 0.51 0.0 0 0 19.27 14.75
  L 40.99 14.75
  A 0.51 0.51 0.0 0 0 41.50 14.24
  L 41.50 12.26
  Z
  M 44.49 18.31
  A 0.31 0.31 0.0 0 0 44.18 18.00
  L 15.80 18.00
  A 0.31 0.31 0.0 0 0 15.49 18.31
  L 15.49 20.43
  A 0.31 0.31 0.0 0 0 15.80 20.74
  L 44.18 20.74
  A 0.31 0.31 0.0 0 0 44.49 20.43
  L 44.49 18.31
  Z
  M 47.43 24.72
  A 0.49 0.49 0.0 0 0 46.94 24.23
  L 12.76 24.23
  A 0.49 0.49 0.0 0 0 12.27 24.72
  L 12.27 26.76
  A 0.49 0.49 0.0 0 0 12.76 27.25
  L 46.94 27.25
  A 0.49 0.49 0.0 0 0 47.43 26.76
  L 47.43 24.72
  Z
  M 56.5278 33.9265
  A 3.37 3.37 0.0 0 0 53.1637 30.5506
  L 6.6638 30.4694
  A 3.37 3.37 0.0 0 0 3.2879 33.8336
  L 3.2522 54.3335
  A 3.37 3.37 0.0 0 0 6.6163 57.7094
  L 53.1162 57.7906
  A 3.37 3.37 0.0 0 0 56.4921 54.4264
  L 56.5278 33.9265
  Z"
/>
<path fill="#fefefe" d="
  M 37.19 44.89
  L 37.35 42.18
  Q 37.39 41.62 37.92 41.47
  C 41.49 40.43 40.51 45.66 40.49 47.67
  A 1.09 1.08 0.0 0 1 39.40 48.75
  L 20.97 48.75
  A 1.09 1.09 0.0 0 1 19.88 47.66
  L 19.88 42.27
  A 1.12 1.11 1.9 0 1 21.07 41.16
  Q 23.88 41.33 23.18 44.15
  Q 22.84 45.50 24.23 45.50
  L 36.55 45.50
  Q 37.16 45.49 37.19 44.89
  Z"
/>
</svg>
