<?xml version="1.0" encoding="UTF-8" standalone="no"?>
<svg
   xmlns:dc="http://purl.org/dc/elements/1.1/"
   xmlns:cc="http://creativecommons.org/ns#"
   xmlns:rdf="http://www.w3.org/1999/02/22-rdf-syntax-ns#"
   xmlns:svg="http://www.w3.org/2000/svg"
   xmlns="http://www.w3.org/2000/svg"
   xmlns:sodipodi="http://sodipodi.sourceforge.net/DTD/sodipodi-0.dtd"
   xmlns:inkscape="http://www.inkscape.org/namespaces/inkscape"
   version="1.1"
   x="0px"
   y="0px"
   viewBox="0 0 128 160"
   style="enable-background:new 0 0 128 128;"
   xml:space="preserve"
   id="svg8"
   sodipodi:docname="noun_Lock_2763012.svg"
   inkscape:version="0.92.4 (5da689c313, 2019-01-14)"><metadata
     id="metadata14"><rdf:RDF><cc:Work
         rdf:about=""><dc:format>image/svg+xml</dc:format><dc:type
           rdf:resource="http://purl.org/dc/dcmitype/StillImage" /><dc:title /></cc:Work></rdf:RDF></metadata><defs
     id="defs12" /><sodipodi:namedview
     pagecolor="#ffffff"
     bordercolor="#666666"
     borderopacity="1"
     objecttolerance="10"
     gridtolerance="10"
     guidetolerance="10"
     inkscape:pageopacity="0"
     inkscape:pageshadow="2"
     inkscape:window-width="1366"
     inkscape:window-height="705"
     id="namedview10"
     showgrid="false"
     inkscape:zoom="1.475"
     inkscape:cx="43.369277"
     inkscape:cy="80"
     inkscape:window-x="-8"
     inkscape:window-y="-8"
     inkscape:window-maximized="1"
     inkscape:current-layer="svg8" /><path
     d="M107,50h-7.5V38.2C99.5,18.6,83.6,2.6,64,2.6c-19.6,0-35.5,15.9-35.5,35.5V50H21c-5.4,1.1-9.4,5.9-9.4,11.6v51.9  c0,6.6,5.3,11.9,11.9,11.9h81c6.6,0,11.9-5.3,11.9-11.9V61.6C116.4,55.9,112.4,51.1,107,50z M44.9,47.7v-9.5  C44.9,27.6,53.4,19,64,19c10.6,0,19.1,8.6,19.1,19.1v6.6V50H44.9V47.7z M71.1,95.8c0,3.9-3.2,7.1-7.1,7.1s-7.1-3.2-7.1-7.1V79.6  c0-4,3.2-7.1,7.1-7.1c2,0,3.7,0.8,5,2.1c1.3,1.3,2.1,3.1,2.1,5.1V95.8z"
     id="path2"
     style="fill:#707070;fill-opacity:1"
     inkscape:export-filename="C:\Users\sdaouadji\Desktop\pathA.png"
     inkscape:export-xdpi="96"
     inkscape:export-ydpi="96" /></svg>