<?xml version="1.0" encoding="UTF-8" standalone="no"?>
<!DOCTYPE svg PUBLIC "-//W3C//DTD SVG 1.1//EN" "http://www.w3.org/Graphics/SVG/1.1/DTD/svg11.dtd">
<svg xmlns="http://www.w3.org/2000/svg" version="1.1" viewBox="0 0 60 59">
<path fill="#213569" d="
  M 1.81 0.00
  L 44.02 -0.05
  Q 46.92 8.88 45.53 16.01
  Q 45.19 17.72 42.66 19.45
  Q 42.25 19.73 42.25 19.24
  L 42.25 4.25
  A 0.50 0.50 0.0 0 0 41.75 3.75
  L 3.75 3.75
  Q 3.25 3.75 3.25 4.25
  L 3.25 54.75
  Q 3.25 55.25 3.75 55.25
  L 41.62 55.25
  Q 42.25 55.25 42.25 54.62
  L 42.25 51.33
  Q 42.25 50.82 42.56 50.42
  L 44.83 47.51
  Q 45.37 46.82 45.41 47.70
  C 45.60 51.84 46.48 57.83 43.44 59.00
  L 1.94 59.00
  Q 0.48 58.27 0.00 56.69
  L 0.00 2.19
  Q 0.55 0.79 1.81 0.00
  Z"
/>
<rect fill="#213569" x="9.29" y="11.01" width="26.96" height="3.74" rx="1.74"/>
<path fill="#213569" d="
  M 60.00 22.06
  L 60.00 23.56
  Q 52.04 33.80 40.54 47.05
  C 38.80 49.05 37.54 48.37 35.17 48.58
  C 29.36 49.11 31.37 42.42 31.54 39.00
  Q 31.56 38.48 31.90 38.08
  L 51.37 14.89
  A 1.89 1.89 0.0 0 1 54.10 14.71
  Q 57.53 17.88 60.00 22.06
  Z
  M 56.25 23.00
  A 0.52 0.52 0.0 0 0 56.24 22.35
  L 53.32 18.82
  A 0.52 0.52 0.0 0 0 52.51 18.83
  L 51.18 20.55
  A 0.52 0.52 0.0 0 0 51.19 21.20
  L 54.09 24.71
  A 0.52 0.52 0.0 0 0 54.90 24.71
  L 56.25 23.00
  Z
  M 52.12 28.14
  A 0.37 0.36 -45.7 0 0 52.12 27.67
  L 49.12 24.06
  A 0.53 0.52 45.4 0 0 48.32 24.05
  Q 41.94 31.68 35.59 39.24
  C 34.20 40.89 34.32 42.38 34.55 44.38
  Q 34.60 44.84 35.05 44.78
  L 37.87 44.43
  Q 38.36 44.37 38.67 43.99
  L 52.12 28.14
  Z"
/>
<rect fill="#213569" x="-13.40" y="-1.98" transform="translate(22.76,23.92) rotate(-0.2)" width="26.80" height="3.96" rx="1.79"/>
<path fill="#20356b" fill-opacity="0.969" d="
  M 28.02 36.93
  C 22.69 37.35 17.16 36.81 11.79 37.07
  Q 9.78 37.16 9.20 35.02
  A 1.60 1.59 -7.7 0 1 10.74 33.00
  L 30.78 33.00
  Q 31.55 33.00 31.08 33.61
  L 28.86 36.47
  Q 28.54 36.89 28.02 36.93
  Z"
/>
<rect fill="#20356b" fill-opacity="0.969" x="-9.34" y="-1.86" transform="translate(18.79,46.12) rotate(0.1)" width="18.68" height="3.72" rx="0.80"/>
</svg>
