<?xml version="1.0" encoding="UTF-8" standalone="no"?>
<!DOCTYPE svg PUBLIC "-//W3C//DTD SVG 1.1//EN" "http://www.w3.org/Graphics/SVG/1.1/DTD/svg11.dtd">
<svg xmlns="http://www.w3.org/2000/svg" version="1.1" viewBox="0 0 60 59">
<path fill="#fefefe" d="
  M 2.06 0.00
  L 44.03 -0.05
  Q 46.35 7.19 45.66 14.88
  C 45.48 16.93 44.27 18.12 42.95 19.57
  Q 42.25 20.33 42.25 19.30
  L 42.25 4.25
  Q 42.25 3.75 41.75 3.75
  L 3.75 3.75
  A 0.50 0.50 0.0 0 0 3.25 4.25
  L 3.25 54.75
  Q 3.25 55.25 3.75 55.25
  L 41.62 55.25
  Q 42.25 55.25 42.25 54.62
  L 42.25 51.32
  Q 42.25 50.81 42.56 50.40
  L 44.90 47.36
  A 0.37 0.37 0.0 0 1 45.57 47.59
  C 45.51 50.41 46.61 57.83 43.44 59.00
  L 1.94 59.00
  Q 0.51 58.23 0.00 56.69
  L 0.00 2.19
  Q 0.57 0.68 2.06 0.00
  Z"
/>
<rect fill="#fefefe" x="-13.42" y="-1.91" transform="translate(22.78,12.91) rotate(-0.2)" width="26.84" height="3.82" rx="1.64"/>
<path fill="#fefefe" d="
  M 60.00 21.81
  L 60.00 23.81
  L 39.64 48.07
  Q 39.35 48.41 38.89 48.43
  L 33.60 48.67
  A 2.31 2.30 89.9 0 1 31.20 46.27
  L 31.48 39.17
  Q 31.50 38.63 31.85 38.21
  Q 41.29 26.74 50.95 15.45
  C 53.99 11.90 58.53 19.68 60.00 21.81
  Z
  M 54.18 24.80
  A 0.41 0.41 0.0 0 0 54.82 24.80
  L 56.25 23.03
  A 0.41 0.41 0.0 0 0 56.25 22.51
  L 53.26 18.78
  A 0.41 0.41 0.0 0 0 52.62 18.78
  L 51.14 20.61
  A 0.41 0.41 0.0 0 0 51.14 21.13
  L 54.18 24.80
  Z
  M 38.82 43.84
  L 51.96 28.31
  Q 52.25 27.97 51.98 27.62
  L 49.15 24.04
  Q 48.79 23.58 48.41 24.02
  Q 41.93 31.60 35.59 39.30
  C 34.34 40.82 34.36 42.38 34.53 44.21
  Q 34.59 44.88 35.25 44.78
  L 37.83 44.39
  Q 38.43 44.30 38.82 43.84
  Z"
/>
<rect fill="#fefefe" x="-13.44" y="-1.91" transform="translate(22.77,23.91) rotate(-0.2)" width="26.88" height="3.82" rx="1.64"/>
<path fill="#fefefe" d="
  M 9.40 34.35
  Q 9.66 33.00 11.03 33.00
  L 30.89 33.00
  Q 31.55 33.00 31.16 33.53
  L 28.79 36.67
  Q 28.53 37.03 28.09 37.02
  Q 19.65 37.01 11.26 36.82
  Q 8.94 36.76 9.40 34.35
  Z"
/>
<rect fill="#fefefe" x="-9.33" y="-1.87" transform="translate(18.80,46.13) rotate(0.2)" width="18.66" height="3.74" rx="0.68"/>
</svg>
