<?xml version="1.0" encoding="UTF-8" standalone="no"?>
<!DOCTYPE svg PUBLIC "-//W3C//DTD SVG 1.1//EN" "http://www.w3.org/Graphics/SVG/1.1/DTD/svg11.dtd">
<svg xmlns="http://www.w3.org/2000/svg" version="1.1" viewBox="0 0 50 57">
<path fill="#fffefe" d="
  M 23.56 0.00
  L 26.56 0.00
  Q 30.84 1.18 31.19 5.50
  C 31.30 6.95 31.66 7.51 33.18 7.39
  Q 33.68 7.35 34.10 7.63
  Q 41.30 12.37 43.55 20.35
  C 44.75 24.62 44.19 30.29 44.27 35.18
  Q 44.28 35.72 44.80 35.85
  Q 48.92 36.93 50.00 41.06
  L 50.00 43.06
  C 47.87 49.86 39.98 47.99 34.54 48.01
  Q 34.02 48.01 33.95 48.52
  Q 33.06 55.44 26.19 57.00
  L 23.69 57.00
  Q 16.91 55.33 16.05 48.52
  Q 15.98 48.01 15.46 48.01
  C 10.09 47.99 1.92 49.86 0.00 42.94
  L 0.00 40.69
  Q 1.29 36.93 5.17 35.90
  Q 5.70 35.76 5.72 35.21
  C 5.86 27.89 4.56 21.16 8.84 14.33
  Q 12.78 8.04 18.71 6.61
  Q 19.22 6.49 19.19 5.97
  Q 18.89 1.10 23.56 0.00
  Z
  M 47.53 41.99
  C 47.45 38.55 44.17 38.54 41.93 37.29
  Q 41.48 37.04 41.49 36.53
  C 41.60 27.88 42.25 9.99 29.20 9.06
  Q 28.50 9.01 28.50 8.31
  L 28.50 5.82
  Q 28.50 5.35 28.28 4.93
  C 26.31 1.12 20.62 3.28 21.60 8.37
  Q 21.72 8.98 21.09 9.04
  C 6.96 10.50 8.53 27.31 8.48 36.92
  Q 8.48 37.47 7.98 37.70
  C 6.44 38.39 4.88 38.13 3.71 39.23
  C 1.53 41.30 2.74 45.32 5.50 45.30
  Q 24.90 45.14 44.31 44.95
  C 46.29 44.94 47.58 44.00 47.53 41.99
  Z
  M 19.01 49.47
  C 21.31 55.93 30.40 55.72 31.15 48.68
  Q 31.22 48.00 30.54 48.00
  L 20.05 48.00
  Q 18.48 48.00 19.01 49.47
  Z"
/>
</svg>
