<?xml version="1.0" encoding="UTF-8" standalone="no"?>
<!DOCTYPE svg PUBLIC "-//W3C//DTD SVG 1.1//EN" "http://www.w3.org/Graphics/SVG/1.1/DTD/svg11.dtd">
<svg xmlns="http://www.w3.org/2000/svg" version="1.1" viewBox="0 0 60 60">
<path fill="#fdfefd" d="
  M 2.56 0.00
  L 4.06 0.00
  L 32.07 2.59
  Q 32.54 2.64 32.53 3.11
  L 32.43 14.58
  A 0.98 0.98 0.0 0 0 33.32 15.57
  L 56.91 17.59
  A 0.64 0.64 0.0 0 1 57.50 18.23
  L 57.50 51.82
  Q 57.50 52.41 58.08 52.44
  L 60.00 52.56
  L 60.00 60.00
  L 0.00 60.00
  L 0.00 52.69
  L 2.01 52.44
  Q 2.49 52.38 2.49 51.90
  L 2.56 0.00
  Z
  M 27.77 15.25
  L 29.42 15.25
  Q 30.03 15.25 30.02 14.64
  L 29.99 5.70
  A 0.80 0.79 2.4 0 0 29.26 4.91
  L 5.50 2.79
  A 0.46 0.46 0.0 0 0 5.00 3.25
  L 5.00 52.00
  Q 5.00 52.50 5.50 52.50
  L 26.97 52.50
  Q 27.49 52.50 27.49 51.98
  C 27.47 39.88 27.99 27.70 27.33 15.72
  Q 27.30 15.25 27.77 15.25
  Z
  M 54.99 20.38
  A 0.57 0.57 0.0 0 0 54.47 19.82
  L 30.62 17.78
  A 0.57 0.57 0.0 0 0 30.00 18.35
  L 30.00 51.93
  A 0.57 0.57 0.0 0 0 30.57 52.50
  L 54.45 52.50
  A 0.57 0.57 0.0 0 0 55.02 51.93
  L 54.99 20.38
  Z
  M 57.52 55.88
  A 0.62 0.62 0.0 0 0 56.90 55.26
  L 3.02 55.26
  A 0.62 0.62 0.0 0 0 2.40 55.88
  L 2.40 56.88
  A 0.62 0.62 0.0 0 0 3.02 57.50
  L 56.90 57.50
  A 0.62 0.62 0.0 0 0 57.52 56.88
  L 57.52 55.88
  Z"
/>
<rect fill="#fdfefd" x="11.25" y="11.24" width="2.50" height="7.74" rx="0.85"/>
<rect fill="#fdfefd" x="-1.25" y="-3.85" transform="translate(20.00,15.11) rotate(-0.1)" width="2.50" height="7.70" rx="0.69"/>
<rect fill="#fdfefd" x="11.25" y="25.00" width="2.50" height="7.50" rx="0.59"/>
<rect fill="#fdfefd" x="-1.25" y="-3.75" transform="translate(20.00,28.77) rotate(0.1)" width="2.50" height="7.50" rx="0.43"/>
<rect fill="#fdfefd" x="-1.25" y="-3.83" transform="translate(38.75,28.82) rotate(-0.1)" width="2.50" height="7.66" rx="0.49"/>
<rect fill="#fdfefd" x="44.99" y="25.01" width="2.50" height="7.76" rx="0.70"/>
<rect fill="#fdfefd" x="-1.25" y="-3.75" transform="translate(12.50,42.51) rotate(0.1)" width="2.50" height="7.50" rx="0.52"/>
<rect fill="#fdfefd" x="-1.25" y="-3.75" transform="translate(20.00,42.51) rotate(-0.3)" width="2.50" height="7.50" rx="0.32"/>
<rect fill="#fdfefd" x="-1.25" y="-3.75" transform="translate(38.75,42.52) rotate(0.1)" width="2.50" height="7.50" rx="0.43"/>
<rect fill="#fdfefd" x="-1.25" y="-3.75" transform="translate(46.25,42.52) rotate(0.1)" width="2.50" height="7.50" rx="0.43"/>
</svg>
