<?xml version="1.0" encoding="UTF-8" standalone="no"?>
<!DOCTYPE svg PUBLIC "-//W3C//DTD SVG 1.1//EN" "http://www.w3.org/Graphics/SVG/1.1/DTD/svg11.dtd">
<svg xmlns="http://www.w3.org/2000/svg" version="1.1" viewBox="0 0 60 60">
<path fill="#213773" d="
  M 2.55 0.00
  L 4.06 0.00
  L 31.88 2.59
  Q 32.53 2.65 32.53 3.30
  L 32.44 14.80
  A 0.68 0.67 2.8 0 0 33.05 15.47
  L 56.96 17.62
  Q 57.50 17.67 57.50 18.22
  L 57.50 52.01
  Q 57.50 52.53 58.02 52.49
  Q 59.12 52.42 60.00 52.81
  L 60.00 60.00
  L 0.00 60.00
  L 0.00 52.69
  L 1.95 52.61
  Q 2.51 52.59 2.51 52.03
  L 2.55 0.00
  Z
  M 27.50 15.31
  A 0.39 0.39 0.0 0 1 27.96 14.93
  L 29.56 15.24
  A 0.39 0.39 0.0 0 0 30.03 14.85
  L 29.98 5.31
  A 0.39 0.39 0.0 0 0 29.63 4.93
  L 5.41 2.76
  A 0.39 0.39 0.0 0 0 4.99 3.15
  L 5.01 52.11
  A 0.39 0.39 0.0 0 0 5.40 52.50
  L 27.11 52.50
  A 0.39 0.39 0.0 0 0 27.50 52.11
  L 27.50 15.31
  Z
  M 54.99 20.47
  A 0.57 0.57 0.0 0 0 54.47 19.90
  L 30.62 17.73
  A 0.57 0.57 0.0 0 0 30.00 18.29
  L 30.00 51.93
  A 0.57 0.57 0.0 0 0 30.57 52.50
  L 54.45 52.50
  A 0.57 0.57 0.0 0 0 55.02 51.93
  L 54.99 20.47
  Z
  M 57.50 55.73
  A 0.49 0.49 0.0 0 0 57.01 55.24
  L 2.83 55.24
  A 0.49 0.49 0.0 0 0 2.34 55.73
  L 2.34 57.01
  A 0.49 0.49 0.0 0 0 2.83 57.50
  L 57.01 57.50
  A 0.49 0.49 0.0 0 0 57.50 57.01
  L 57.50 55.73
  Z"
/>
<rect fill="#213773" x="11.24" y="11.23" width="2.50" height="7.72" rx="0.93"/>
<rect fill="#213773" x="-1.25" y="-3.75" transform="translate(20.00,15.01) rotate(0.1)" width="2.50" height="7.50" rx="0.52"/>
<rect fill="#213773" x="-1.24" y="-3.89" transform="translate(38.74,28.78) rotate(-0.2)" width="2.48" height="7.78" rx="0.92"/>
<rect fill="#213773" x="11.25" y="25.00" width="2.50" height="7.52" rx="0.72"/>
<rect fill="#213773" x="-1.25" y="-3.75" transform="translate(20.00,28.76) rotate(-0.2)" width="2.50" height="7.50" rx="0.52"/>
<rect fill="#213773" x="45.00" y="25.00" width="2.50" height="7.50" rx="0.59"/>
<rect fill="#213773" x="-1.25" y="-3.75" transform="translate(12.50,42.50) rotate(-0.5)" width="2.50" height="7.50" rx="0.64"/>
<rect fill="#213773" x="-1.25" y="-3.75" transform="translate(20.00,42.52) rotate(0.1)" width="2.50" height="7.50" rx="0.43"/>
<rect fill="#213773" x="37.50" y="38.75" width="2.50" height="7.50" rx="0.59"/>
<rect fill="#213773" x="45.00" y="38.75" width="2.50" height="7.50" rx="0.59"/>
</svg>
