<?xml version="1.0" encoding="UTF-8" standalone="no"?>
<svg
   xmlns:dc="http://purl.org/dc/elements/1.1/"
   xmlns:cc="http://creativecommons.org/ns#"
   xmlns:rdf="http://www.w3.org/1999/02/22-rdf-syntax-ns#"
   xmlns:svg="http://www.w3.org/2000/svg"
   xmlns="http://www.w3.org/2000/svg"
   width="92.537735mm"
   height="60.371567mm"
   viewBox="0 0 92.537735 60.371567"
   version="1.1"
   id="svg8">
  <defs
     id="defs2">
    <clipPath
       clipPathUnits="userSpaceOnUse"
       id="clipPath26">
      <path
         d="M 0,425.2 H 425.2 V 0 H 0 Z"
         id="path24" />
    </clipPath>
    <clipPath
       clipPathUnits="userSpaceOnUse"
       id="clipPath490">
      <path
         d="M 0,425.2 H 425.2 V 0 H 0 Z"
         id="path488" />
    </clipPath>
    <clipPath
       clipPathUnits="userSpaceOnUse"
       id="clipPath954">
      <path
         d="M 0,425.2 H 425.2 V 0 H 0 Z"
         id="path952" />
    </clipPath>
    <clipPath
       clipPathUnits="userSpaceOnUse"
       id="clipPath1278">
      <path
         d="M 0,425.2 H 425.2 V 0 H 0 Z"
         id="path1276" />
    </clipPath>
    <clipPath
       clipPathUnits="userSpaceOnUse"
       id="clipPath1602">
      <path
         d="M 0,425.2 H 425.2 V 0 H 0 Z"
         id="path1600" />
    </clipPath>
  </defs>
  <metadata
     id="metadata5">
    <rdf:RDF>
      <cc:Work
         rdf:about="">
        <dc:format>image/svg+xml</dc:format>
        <dc:type
           rdf:resource="http://purl.org/dc/dcmitype/StillImage" />
        <dc:title></dc:title>
      </cc:Work>
    </rdf:RDF>
  </metadata>
  <g
     id="layer1"
     transform="translate(-47.810006,-93.827274)">
    <g
       id="g486"
       clip-path="url(#clipPath490)"
       transform="matrix(0.35277777,0,0,-0.35277777,19.029725,200.27211)">
      <g
         id="g2012">
        <g
           id="g492"
           transform="translate(133.874,150.1221)">
          <path
             d="m 0,0 v 10.82 c 0,0.112 0.08,0.192 0.192,0.192 h 1.873 c 0.112,0 0.192,-0.08 0.192,-0.192 V 1.824 c 0,-0.048 0.032,-0.08 0.08,-0.08 h 4.29 c 0.112,0 0.192,-0.08 0.192,-0.191 L 6.819,0 c 0,-0.112 -0.08,-0.192 -0.192,-0.192 H 0.192 C 0.08,-0.192 0,-0.112 0,0"
             style="fill:#243061;fill-opacity:1;fill-rule:nonzero;stroke:none"
             id="path494" />
        </g>
        <g
           id="g496"
           transform="translate(143.9229,155.4199)">
          <path
             d="m 0,0 c -0.032,-0.176 -0.048,-0.384 -0.064,-0.576 0,-0.048 0.032,-0.08 0.08,-0.08 h 2.081 c 0.048,0 0.08,0.032 0.08,0.08 0,0.192 -0.032,0.368 -0.064,0.544 C 2.033,0.544 1.665,0.929 1.041,0.929 0.448,0.929 0.112,0.576 0,0 m 2.401,-2.93 c 0.048,0.113 0.128,0.16 0.24,0.129 l 1.521,-0.32 C 4.274,-3.153 4.338,-3.233 4.306,-3.361 3.89,-4.738 2.769,-5.618 1.121,-5.618 c -1.713,0 -2.882,0.976 -3.218,2.369 -0.16,0.576 -0.224,1.2 -0.224,2.001 0,0.527 0.016,0.928 0.064,1.312 0.208,1.712 1.361,2.817 3.314,2.817 2.112,0 3.137,-1.185 3.329,-3.105 0.048,-0.512 0.08,-1.136 0.08,-1.649 0,-0.128 -0.08,-0.191 -0.192,-0.191 H 0.016 c -0.048,0 -0.08,-0.033 -0.08,-0.081 0,-0.224 0.016,-0.417 0.048,-0.576 0.112,-0.592 0.577,-0.976 1.248,-0.976 0.593,0.015 0.977,0.336 1.169,0.767"
             style="fill:#243061;fill-opacity:1;fill-rule:nonzero;stroke:none"
             id="path498" />
        </g>
        <g
           id="g500"
           transform="translate(159.3643,155.4678)">
          <path
             d="m 0,0 v -5.346 c 0,-0.112 -0.08,-0.192 -0.192,-0.192 h -1.872 c -0.113,0 -0.193,0.08 -0.193,0.192 v 5.026 c 0,0.736 -0.384,1.201 -1.008,1.201 -0.64,0 -1.041,-0.481 -1.041,-1.217 v -5.01 c 0,-0.112 -0.08,-0.192 -0.192,-0.192 H -6.37 c -0.112,0 -0.192,0.08 -0.192,0.192 v 7.843 c 0,0.112 0.08,0.192 0.192,0.192 h 1.872 c 0.112,0 0.192,-0.08 0.192,-0.192 V 2.065 c 0,-0.064 0.049,-0.08 0.113,-0.016 0.432,0.56 1.04,0.768 1.696,0.768 C -0.928,2.817 0,1.761 0,0"
             style="fill:#243061;fill-opacity:1;fill-rule:nonzero;stroke:none"
             id="path502" />
        </g>
        <g
           id="g504"
           transform="translate(165.1875,158.1572)">
          <path
             d="m 0,0 h 1.873 c 0.111,0 0.191,-0.08 0.191,-0.192 v -7.843 c 0,-0.112 -0.08,-0.193 -0.191,-0.193 H 0 c -0.112,0 -0.192,0.081 -0.192,0.193 v 0.399 c 0,0.065 -0.048,0.08 -0.096,0.032 -0.384,-0.511 -0.977,-0.736 -1.713,-0.736 -1.36,0 -2.497,0.801 -2.497,2.594 v 5.554 c 0,0.112 0.08,0.192 0.192,0.192 h 1.873 c 0.112,0 0.192,-0.08 0.192,-0.192 v -5.027 c 0,-0.736 0.352,-1.2 1.008,-1.2 0.641,0 1.041,0.481 1.041,1.232 v 4.995 C -0.192,-0.08 -0.112,0 0,0"
             style="fill:#243061;fill-opacity:1;fill-rule:nonzero;stroke:none"
             id="path506" />
        </g>
        <g
           id="g508"
           transform="translate(179.3979,155.4521)">
          <path
             d="m 0,0 v -5.33 c 0,-0.112 -0.08,-0.192 -0.192,-0.192 h -1.857 c -0.112,0 -0.192,0.08 -0.192,0.192 v 5.01 c 0,0.752 -0.384,1.216 -0.976,1.216 -0.609,0 -1.009,-0.464 -1.009,-1.201 V -5.33 c 0,-0.112 -0.08,-0.192 -0.192,-0.192 h -1.856 c -0.113,0 -0.193,0.08 -0.193,0.192 v 5.01 c 0,0.752 -0.4,1.216 -0.992,1.216 -0.608,0 -1.008,-0.464 -1.008,-1.201 V -5.33 c 0,-0.112 -0.08,-0.192 -0.193,-0.192 h -1.856 c -0.112,0 -0.192,0.08 -0.192,0.192 v 7.843 c 0,0.112 0.08,0.192 0.192,0.192 h 1.856 c 0.113,0 0.193,-0.08 0.193,-0.192 V 2.097 c 0,-0.065 0.048,-0.096 0.095,-0.033 0.465,0.561 1.121,0.769 1.745,0.769 0.96,0 1.665,-0.416 2.049,-1.152 0.032,-0.048 0.08,-0.033 0.112,0.032 0.496,0.848 1.313,1.12 2.065,1.12 C -0.833,2.833 0,1.776 0,0"
             style="fill:#243061;fill-opacity:1;fill-rule:nonzero;stroke:none"
             id="path510" />
        </g>
        <g
           id="g512"
           transform="translate(185.9395,160.9902)">
          <path
             d="m 0,0 -1.169,-1.617 c -0.064,-0.096 -0.128,-0.112 -0.224,-0.112 h -1.472 c -0.144,0 -0.224,0.081 -0.144,0.224 l 0.912,1.617 c 0.048,0.08 0.144,0.128 0.24,0.128 h 1.745 C 0.048,0.24 0.096,0.128 0,0 m -2.978,-5.57 c -0.031,-0.176 -0.047,-0.384 -0.064,-0.576 0,-0.048 0.033,-0.081 0.081,-0.081 h 2.081 c 0.047,0 0.079,0.033 0.079,0.081 0,0.192 -0.032,0.368 -0.064,0.543 -0.08,0.577 -0.448,0.961 -1.072,0.961 -0.592,0 -0.928,-0.352 -1.041,-0.928 m 2.401,-2.93 c 0.049,0.112 0.129,0.16 0.241,0.129 l 1.52,-0.32 c 0.112,-0.033 0.176,-0.113 0.144,-0.241 -0.416,-1.377 -1.536,-2.256 -3.185,-2.256 -1.713,0 -2.881,0.976 -3.217,2.369 -0.16,0.576 -0.224,1.2 -0.224,2.001 0,0.527 0.016,0.927 0.064,1.312 0.208,1.712 1.36,2.817 3.313,2.817 2.113,0 3.137,-1.185 3.329,-3.105 0.049,-0.513 0.08,-1.137 0.08,-1.649 0,-0.128 -0.08,-0.192 -0.192,-0.192 h -4.257 c -0.048,0 -0.081,-0.032 -0.081,-0.08 0,-0.224 0.017,-0.417 0.048,-0.576 0.113,-0.593 0.577,-0.977 1.249,-0.977 0.592,0.016 0.976,0.336 1.168,0.768"
             style="fill:#243061;fill-opacity:1;fill-rule:nonzero;stroke:none"
             id="path514" />
        </g>
        <g
           id="g516"
           transform="translate(193.3149,158.0771)">
          <path
             d="m 0,0 c 0.096,-0.064 0.112,-0.145 0.096,-0.24 l -0.304,-1.857 c -0.016,-0.144 -0.096,-0.16 -0.224,-0.112 -0.224,0.063 -0.56,0.096 -0.897,0.016 -0.591,-0.08 -1.088,-0.624 -1.088,-1.376 v -4.386 c 0,-0.112 -0.08,-0.192 -0.192,-0.192 h -1.872 c -0.113,0 -0.193,0.08 -0.193,0.192 v 7.843 c 0,0.112 0.08,0.192 0.193,0.192 h 1.872 c 0.112,0 0.192,-0.08 0.192,-0.192 v -0.624 c 0,-0.08 0.048,-0.096 0.08,-0.033 C -2,-0.192 -1.521,0.192 -0.784,0.192 -0.416,0.192 -0.16,0.096 0,0"
             style="fill:#243061;fill-opacity:1;fill-rule:nonzero;stroke:none"
             id="path518" />
        </g>
        <g
           id="g520"
           transform="translate(194.4014,150.1221)">
          <path
             d="m 0,0 v 7.843 c 0,0.112 0.08,0.192 0.192,0.192 h 1.873 c 0.112,0 0.192,-0.08 0.192,-0.192 V 0 c 0,-0.112 -0.08,-0.192 -0.192,-0.192 H 0.192 C 0.08,-0.192 0,-0.112 0,0 m -0.208,10.164 c 0,0.784 0.544,1.328 1.344,1.328 0.801,0 1.345,-0.544 1.345,-1.328 0,-0.801 -0.544,-1.345 -1.345,-1.345 -0.8,0 -1.344,0.544 -1.344,1.345"
             style="fill:#243061;fill-opacity:1;fill-rule:nonzero;stroke:none"
             id="path522" />
        </g>
        <g
           id="g524"
           transform="translate(202.4985,154.0273)">
          <path
             d="m 0,0 c 0,0.512 -0.016,0.992 -0.112,1.393 -0.128,0.56 -0.432,0.928 -0.961,0.928 -0.544,0 -0.848,-0.368 -0.992,-0.944 -0.08,-0.4 -0.112,-0.881 -0.112,-1.377 0,-0.528 0.016,-1.009 0.144,-1.425 0.16,-0.528 0.48,-0.864 0.976,-0.864 0.513,0 0.817,0.352 0.929,0.881 C -0.016,-0.992 0,-0.512 0,0 m 0.208,4.13 h 1.873 c 0.112,0 0.191,-0.08 0.191,-0.192 V -6.883 c 0,-0.112 -0.079,-0.192 -0.191,-0.192 H 0.208 c -0.112,0 -0.192,0.08 -0.192,0.192 v 3.297 c 0,0.065 -0.048,0.097 -0.096,0.032 -0.417,-0.511 -0.961,-0.672 -1.665,-0.672 -1.408,0 -2.241,0.897 -2.561,2.481 -0.096,0.545 -0.144,1.041 -0.144,1.681 0,0.656 0.048,1.216 0.176,1.777 0.336,1.6 1.136,2.545 2.497,2.545 0.688,0 1.265,-0.193 1.697,-0.689 0.048,-0.063 0.096,-0.032 0.096,0.033 v 0.336 c 0,0.112 0.08,0.192 0.192,0.192"
             style="fill:#243061;fill-opacity:1;fill-rule:nonzero;stroke:none"
             id="path526" />
        </g>
        <g
           id="g528"
           transform="translate(210.707,158.1572)">
          <path
             d="m 0,0 h 1.873 c 0.111,0 0.191,-0.08 0.191,-0.192 v -7.843 c 0,-0.112 -0.08,-0.193 -0.191,-0.193 H 0 c -0.112,0 -0.192,0.081 -0.192,0.193 v 0.399 c 0,0.065 -0.048,0.08 -0.096,0.032 -0.384,-0.511 -0.977,-0.736 -1.713,-0.736 -1.36,0 -2.497,0.801 -2.497,2.594 v 5.554 c 0,0.112 0.08,0.192 0.192,0.192 h 1.873 c 0.112,0 0.192,-0.08 0.192,-0.192 v -5.027 c 0,-0.736 0.352,-1.2 1.008,-1.2 0.641,0 1.041,0.481 1.041,1.232 v 4.995 C -0.192,-0.08 -0.112,0 0,0"
             style="fill:#243061;fill-opacity:1;fill-rule:nonzero;stroke:none"
             id="path530" />
        </g>
        <g
           id="g532"
           transform="translate(216.4014,155.4199)">
          <path
             d="m 0,0 c -0.032,-0.176 -0.048,-0.384 -0.064,-0.576 0,-0.048 0.032,-0.08 0.08,-0.08 h 2.081 c 0.048,0 0.08,0.032 0.08,0.08 0,0.192 -0.032,0.368 -0.064,0.544 C 2.033,0.544 1.665,0.929 1.041,0.929 0.448,0.929 0.112,0.576 0,0 m 2.401,-2.93 c 0.048,0.113 0.128,0.16 0.24,0.129 l 1.521,-0.32 C 4.274,-3.153 4.338,-3.233 4.306,-3.361 3.89,-4.738 2.769,-5.618 1.121,-5.618 c -1.713,0 -2.882,0.976 -3.218,2.369 -0.16,0.576 -0.224,1.2 -0.224,2.001 0,0.527 0.016,0.928 0.064,1.312 0.208,1.712 1.361,2.817 3.314,2.817 2.112,0 3.137,-1.185 3.329,-3.105 0.048,-0.512 0.08,-1.136 0.08,-1.649 0,-0.128 -0.08,-0.191 -0.192,-0.191 H 0.016 c -0.048,0 -0.08,-0.033 -0.08,-0.081 0,-0.224 0.016,-0.417 0.048,-0.576 0.112,-0.592 0.577,-0.976 1.248,-0.976 0.593,0.015 0.977,0.336 1.169,0.767"
             style="fill:#243061;fill-opacity:1;fill-rule:nonzero;stroke:none"
             id="path534" />
        </g>
        <g
           id="g536"
           transform="translate(229.4741,152.6191)">
          <path
             d="m 0,0 v 0.672 c 0,0.048 -0.032,0.08 -0.08,0.08 h -0.913 c -0.752,0 -1.248,-0.353 -1.248,-0.992 0,-0.561 0.384,-0.864 0.929,-0.864 C -0.625,-1.104 0,-0.688 0,0 m 2.257,2.961 v -5.458 c 0,-0.112 -0.08,-0.192 -0.192,-0.192 H 0.192 C 0.08,-2.689 0,-2.609 0,-2.497 v 0.432 c 0,0.064 -0.048,0.096 -0.096,0.032 -0.432,-0.529 -1.072,-0.784 -1.921,-0.784 -1.233,0 -2.513,0.528 -2.513,2.432 0,1.889 1.264,2.61 3.265,2.61 h 1.185 c 0.048,0 0.08,0.032 0.08,0.08 v 0.368 c 0,0.64 -0.384,1.056 -1.057,1.056 -0.496,0 -0.864,-0.256 -0.944,-0.656 -0.032,-0.112 -0.112,-0.16 -0.224,-0.16 l -1.937,0.111 c -0.112,0 -0.192,0.065 -0.176,0.177 0.112,1.473 1.441,2.465 3.265,2.465 1.969,0 3.33,-1.12 3.33,-2.705"
             style="fill:#243061;fill-opacity:1;fill-rule:nonzero;stroke:none"
             id="path538" />
        </g>
        <g
           id="g540"
           transform="translate(237.4902,158.1572)">
          <path
             d="m 0,0 h 1.873 c 0.111,0 0.191,-0.08 0.191,-0.192 v -7.843 c 0,-0.112 -0.08,-0.193 -0.191,-0.193 H 0 c -0.112,0 -0.192,0.081 -0.192,0.193 v 0.399 c 0,0.065 -0.048,0.08 -0.096,0.032 -0.384,-0.511 -0.977,-0.736 -1.713,-0.736 -1.36,0 -2.497,0.801 -2.497,2.594 v 5.554 c 0,0.112 0.08,0.192 0.192,0.192 h 1.873 c 0.112,0 0.192,-0.08 0.192,-0.192 v -5.027 c 0,-0.736 0.352,-1.2 1.008,-1.2 0.641,0 1.041,0.481 1.041,1.232 v 4.995 C -0.192,-0.08 -0.112,0 0,0"
             style="fill:#243061;fill-opacity:1;fill-rule:nonzero;stroke:none"
             id="path542" />
        </g>
        <g
           id="g544"
           transform="translate(243.9517,152.2021)">
          <path
             d="M 0,0 V 0.129 C 0,0.24 0.08,0.32 0.192,0.32 h 1.777 c 0.112,0 0.192,-0.048 0.192,-0.111 V 0.097 c 0,-0.465 0.464,-0.801 1.089,-0.801 0.576,0 0.96,0.305 0.96,0.704 0,0.625 -1.008,0.705 -1.969,1.089 C 1.265,1.425 0.08,2.001 0.08,3.521 c 0,1.585 1.249,2.546 3.089,2.546 1.921,0 3.154,-1.041 3.154,-2.609 0,-0.112 -0.08,-0.176 -0.192,-0.176 H 4.418 c -0.112,0 -0.192,0.064 -0.192,0.128 v 0.111 c 0,0.449 -0.4,0.786 -1.024,0.786 C 2.625,4.307 2.241,3.986 2.241,3.586 2.241,2.962 3.153,2.834 4.066,2.514 5.187,2.146 6.467,1.602 6.467,0.08 6.467,-1.472 5.187,-2.385 3.266,-2.385 1.265,-2.385 0,-1.408 0,0"
             style="fill:#243061;fill-opacity:1;fill-rule:nonzero;stroke:none"
             id="path546" />
        </g>
        <g
           id="g548"
           transform="translate(253.6963,155.4199)">
          <path
             d="m 0,0 c -0.032,-0.176 -0.048,-0.384 -0.064,-0.576 0,-0.048 0.032,-0.08 0.08,-0.08 h 2.081 c 0.048,0 0.08,0.032 0.08,0.08 0,0.192 -0.032,0.368 -0.064,0.544 C 2.033,0.544 1.665,0.929 1.041,0.929 0.448,0.929 0.112,0.576 0,0 m 2.401,-2.93 c 0.048,0.113 0.128,0.16 0.24,0.129 l 1.521,-0.32 C 4.274,-3.153 4.338,-3.233 4.306,-3.361 3.89,-4.738 2.769,-5.618 1.121,-5.618 c -1.713,0 -2.882,0.976 -3.218,2.369 -0.16,0.576 -0.224,1.2 -0.224,2.001 0,0.527 0.016,0.928 0.064,1.312 0.208,1.712 1.361,2.817 3.314,2.817 2.112,0 3.137,-1.185 3.329,-3.105 0.048,-0.512 0.08,-1.136 0.08,-1.649 0,-0.128 -0.08,-0.191 -0.192,-0.191 H 0.016 c -0.048,0 -0.08,-0.033 -0.08,-0.081 0,-0.224 0.016,-0.417 0.048,-0.576 0.112,-0.592 0.577,-0.976 1.248,-0.976 0.593,0.015 0.977,0.336 1.169,0.767"
             style="fill:#243061;fill-opacity:1;fill-rule:nonzero;stroke:none"
             id="path550" />
        </g>
        <g
           id="g552"
           transform="translate(264.0493,158.0771)">
          <path
             d="m 0,0 c 0.096,-0.064 0.112,-0.145 0.096,-0.24 l -0.304,-1.857 c -0.016,-0.144 -0.096,-0.16 -0.224,-0.112 -0.224,0.063 -0.56,0.096 -0.897,0.016 -0.591,-0.08 -1.088,-0.624 -1.088,-1.376 v -4.386 c 0,-0.112 -0.08,-0.192 -0.192,-0.192 h -1.872 c -0.113,0 -0.193,0.08 -0.193,0.192 v 7.843 c 0,0.112 0.08,0.192 0.193,0.192 h 1.872 c 0.112,0 0.192,-0.08 0.192,-0.192 v -0.624 c 0,-0.08 0.048,-0.096 0.08,-0.033 C -2,-0.192 -1.521,0.192 -0.784,0.192 -0.416,0.192 -0.16,0.096 0,0"
             style="fill:#243061;fill-opacity:1;fill-rule:nonzero;stroke:none"
             id="path554" />
        </g>
        <g
           id="g556"
           transform="translate(266.9922,150.0898)">
          <path
             d="m 0,0 -2.225,7.859 c -0.032,0.144 0.032,0.208 0.16,0.208 H 0 c 0.112,0 0.192,-0.064 0.208,-0.176 L 1.232,3.089 c 0.017,-0.08 0.08,-0.08 0.097,0 L 2.353,7.891 C 2.369,8.003 2.449,8.067 2.561,8.067 L 4.626,8.051 c 0.128,0 0.192,-0.064 0.16,-0.208 L 2.561,0 C 2.529,-0.096 2.449,-0.16 2.337,-0.16 H 0.224 C 0.112,-0.16 0.032,-0.096 0,0"
             style="fill:#243061;fill-opacity:1;fill-rule:nonzero;stroke:none"
             id="path558" />
        </g>
        <g
           id="g560"
           transform="translate(272.9111,150.1221)">
          <path
             d="m 0,0 v 7.843 c 0,0.112 0.08,0.192 0.192,0.192 h 1.873 c 0.112,0 0.192,-0.08 0.192,-0.192 V 0 c 0,-0.112 -0.08,-0.192 -0.192,-0.192 H 0.192 C 0.08,-0.192 0,-0.112 0,0 m -0.208,10.164 c 0,0.784 0.544,1.328 1.344,1.328 0.801,0 1.345,-0.544 1.345,-1.328 0,-0.801 -0.544,-1.345 -1.345,-1.345 -0.8,0 -1.344,0.544 -1.344,1.345"
             style="fill:#243061;fill-opacity:1;fill-rule:nonzero;stroke:none"
             id="path562" />
        </g>
        <g
           id="g564"
           transform="translate(276.6875,152.3467)">
          <path
             d="m 0,0 c -0.096,0.496 -0.128,1.152 -0.128,1.729 0,0.624 0.064,1.249 0.128,1.697 0.272,1.52 1.504,2.512 3.297,2.512 1.745,0 3.009,-0.96 3.282,-2.384 C 6.61,3.409 6.626,3.249 6.643,3.089 6.643,2.961 6.562,2.897 6.45,2.881 L 4.61,2.705 C 4.481,2.689 4.417,2.753 4.401,2.881 c 0,0.048 0,0.112 -0.015,0.16 C 4.37,3.121 4.354,3.186 4.322,3.266 4.193,3.682 3.825,4.002 3.281,4.002 2.689,4.002 2.321,3.617 2.225,3.041 2.161,2.689 2.129,2.225 2.129,1.713 c 0,-0.561 0.032,-1.025 0.112,-1.377 0.096,-0.576 0.464,-0.944 1.04,-0.944 0.64,0 1.009,0.4 1.073,0.896 L 4.386,0.48 C 4.401,0.592 4.481,0.672 4.594,0.656 L 6.45,0.496 C 6.562,0.48 6.626,0.416 6.626,0.288 6.626,0.192 6.61,0.08 6.594,-0.032 6.371,-1.585 5.106,-2.545 3.297,-2.545 1.488,-2.545 0.272,-1.568 0,0"
             style="fill:#243061;fill-opacity:1;fill-rule:nonzero;stroke:none"
             id="path566" />
        </g>
        <g
           id="g568"
           transform="translate(286.6396,155.4199)">
          <path
             d="m 0,0 c -0.032,-0.176 -0.048,-0.384 -0.064,-0.576 0,-0.048 0.032,-0.08 0.08,-0.08 h 2.081 c 0.048,0 0.08,0.032 0.08,0.08 0,0.192 -0.032,0.368 -0.064,0.544 C 2.033,0.544 1.665,0.929 1.041,0.929 0.448,0.929 0.112,0.576 0,0 m 2.401,-2.93 c 0.048,0.113 0.128,0.16 0.24,0.129 l 1.521,-0.32 C 4.274,-3.153 4.338,-3.233 4.306,-3.361 3.89,-4.738 2.769,-5.618 1.121,-5.618 c -1.713,0 -2.882,0.976 -3.218,2.369 -0.16,0.576 -0.224,1.2 -0.224,2.001 0,0.527 0.016,0.928 0.064,1.312 0.208,1.712 1.361,2.817 3.314,2.817 2.112,0 3.137,-1.185 3.329,-3.105 0.048,-0.512 0.08,-1.136 0.08,-1.649 0,-0.128 -0.08,-0.191 -0.192,-0.191 H 0.016 c -0.048,0 -0.08,-0.033 -0.08,-0.081 0,-0.224 0.016,-0.417 0.048,-0.576 0.112,-0.592 0.577,-0.976 1.248,-0.976 0.593,0.015 0.977,0.336 1.169,0.767"
             style="fill:#243061;fill-opacity:1;fill-rule:nonzero;stroke:none"
             id="path570" />
        </g>
        <g
           id="g572"
           transform="translate(176.7793,134.8594)">
          <path
             d="M 0,0 C 0,0.512 -0.016,0.992 -0.128,1.408 -0.24,1.937 -0.544,2.289 -1.057,2.289 -1.553,2.289 -1.873,1.952 -2.033,1.425 -2.161,1.008 -2.177,0.528 -2.177,0 c 0,-0.496 0.032,-0.977 0.112,-1.377 0.144,-0.576 0.448,-0.944 0.992,-0.944 0.529,0 0.833,0.368 0.961,0.928 C -0.016,-0.992 0,-0.513 0,0 m 0.208,7.074 h 1.873 c 0.112,0 0.191,-0.08 0.191,-0.191 V -3.938 C 2.272,-4.05 2.193,-4.13 2.081,-4.13 H 0.208 c -0.112,0 -0.192,0.08 -0.192,0.192 v 0.336 c 0,0.064 -0.048,0.096 -0.096,0.033 -0.432,-0.496 -1.009,-0.689 -1.697,-0.689 -1.361,0 -2.161,0.945 -2.497,2.545 -0.128,0.561 -0.176,1.12 -0.176,1.776 0,0.641 0.048,1.137 0.144,1.681 0.32,1.585 1.153,2.482 2.561,2.482 0.704,0 1.248,-0.161 1.665,-0.673 0.048,-0.064 0.096,-0.032 0.096,0.032 v 3.298 c 0,0.111 0.08,0.191 0.192,0.191"
             style="fill:#243061;fill-opacity:1;fill-rule:nonzero;stroke:none"
             id="path574" />
        </g>
        <g
           id="g576"
           transform="translate(182.6982,136.2197)">
          <path
             d="m 0,0 c -0.032,-0.176 -0.048,-0.384 -0.064,-0.576 0,-0.048 0.032,-0.08 0.08,-0.08 h 2.081 c 0.048,0 0.08,0.032 0.08,0.08 0,0.192 -0.032,0.368 -0.064,0.544 C 2.033,0.544 1.665,0.929 1.041,0.929 0.448,0.929 0.112,0.576 0,0 m 2.401,-2.929 c 0.048,0.112 0.128,0.159 0.24,0.128 l 1.521,-0.32 C 4.274,-3.153 4.338,-3.233 4.306,-3.361 3.89,-4.738 2.769,-5.618 1.121,-5.618 c -1.713,0 -2.882,0.976 -3.218,2.369 -0.16,0.576 -0.224,1.2 -0.224,2.001 0,0.527 0.016,0.928 0.064,1.312 0.208,1.712 1.361,2.817 3.314,2.817 2.112,0 3.137,-1.185 3.329,-3.105 0.048,-0.512 0.08,-1.136 0.08,-1.649 0,-0.128 -0.08,-0.191 -0.192,-0.191 H 0.016 c -0.048,0 -0.08,-0.033 -0.08,-0.081 0,-0.224 0.016,-0.417 0.048,-0.576 0.112,-0.592 0.577,-0.976 1.248,-0.976 0.593,0.015 0.977,0.336 1.169,0.768"
             style="fill:#243061;fill-opacity:1;fill-rule:nonzero;stroke:none"
             id="path578" />
        </g>
        <g
           id="g580"
           transform="translate(191.5605,130.9219)">
          <path
             d="m 0,0 v 10.82 c 0,0.112 0.08,0.192 0.192,0.192 h 1.873 c 0.112,0 0.192,-0.08 0.192,-0.192 V 0 c 0,-0.112 -0.08,-0.192 -0.192,-0.192 H 0.192 C 0.08,-0.192 0,-0.112 0,0"
             style="fill:#243061;fill-opacity:1;fill-rule:nonzero;stroke:none"
             id="path582" />
        </g>
        <g
           id="g584"
           transform="translate(197.5776,141.71)">
          <path
             d="m 0,0 -1.2,-3.233 c -0.032,-0.113 -0.112,-0.161 -0.224,-0.161 h -1.409 c -0.128,0 -0.208,0.065 -0.176,0.208 l 0.784,3.25 c 0.032,0.112 0.096,0.16 0.208,0.16 H -0.16 C -0.016,0.224 0.048,0.144 0,0"
             style="fill:#243061;fill-opacity:1;fill-rule:nonzero;stroke:none"
             id="path586" />
        </g>
        <g
           id="g588"
           transform="translate(198.4727,130.9219)">
          <path
             d="m 0,0 v 7.843 c 0,0.112 0.08,0.192 0.192,0.192 h 1.873 c 0.112,0 0.192,-0.08 0.192,-0.192 V 0 c 0,-0.112 -0.08,-0.192 -0.192,-0.192 H 0.192 C 0.08,-0.192 0,-0.112 0,0 m -0.208,10.164 c 0,0.784 0.544,1.328 1.344,1.328 0.801,0 1.345,-0.544 1.345,-1.328 0,-0.801 -0.544,-1.345 -1.345,-1.345 -0.8,0 -1.344,0.544 -1.344,1.345"
             style="fill:#243061;fill-opacity:1;fill-rule:nonzero;stroke:none"
             id="path590" />
        </g>
        <g
           id="g592"
           transform="translate(208.8433,136.2676)">
          <path
             d="m 0,0 v -5.346 c 0,-0.112 -0.08,-0.192 -0.192,-0.192 h -1.872 c -0.113,0 -0.193,0.08 -0.193,0.192 v 5.026 c 0,0.736 -0.384,1.201 -1.008,1.201 -0.64,0 -1.041,-0.481 -1.041,-1.217 v -5.01 c 0,-0.112 -0.08,-0.192 -0.192,-0.192 H -6.37 c -0.112,0 -0.192,0.08 -0.192,0.192 v 7.843 c 0,0.112 0.08,0.192 0.192,0.192 h 1.872 c 0.112,0 0.192,-0.08 0.192,-0.192 V 2.065 c 0,-0.064 0.049,-0.08 0.113,-0.016 0.432,0.56 1.04,0.768 1.696,0.768 C -0.928,2.817 0,1.761 0,0"
             style="fill:#243061;fill-opacity:1;fill-rule:nonzero;stroke:none"
             id="path594" />
        </g>
        <g
           id="g596"
           transform="translate(210.2007,133.1465)">
          <path
             d="m 0,0 c -0.096,0.496 -0.128,1.152 -0.128,1.729 0,0.624 0.064,1.249 0.128,1.697 0.272,1.52 1.504,2.512 3.297,2.512 1.745,0 3.009,-0.96 3.282,-2.384 C 6.61,3.409 6.626,3.249 6.643,3.089 6.643,2.961 6.562,2.897 6.45,2.881 L 4.61,2.705 C 4.481,2.689 4.417,2.753 4.401,2.881 c 0,0.048 0,0.112 -0.015,0.16 C 4.37,3.121 4.354,3.186 4.322,3.266 4.193,3.682 3.825,4.002 3.281,4.002 2.689,4.002 2.321,3.617 2.225,3.041 2.161,2.689 2.128,2.225 2.128,1.713 c 0,-0.561 0.033,-1.025 0.113,-1.377 0.096,-0.576 0.464,-0.944 1.04,-0.944 0.64,0 1.009,0.4 1.073,0.896 L 4.386,0.48 C 4.401,0.592 4.481,0.672 4.594,0.656 L 6.45,0.496 C 6.562,0.48 6.626,0.416 6.626,0.288 6.626,0.192 6.61,0.08 6.594,-0.032 6.371,-1.585 5.106,-2.545 3.297,-2.545 1.488,-2.545 0.272,-1.568 0,0"
             style="fill:#243061;fill-opacity:1;fill-rule:nonzero;stroke:none"
             id="path598" />
        </g>
        <g
           id="g600"
           transform="translate(217.9922,130.9219)">
          <path
             d="m 0,0 v 10.82 c 0,0.112 0.08,0.192 0.192,0.192 h 1.873 c 0.112,0 0.192,-0.08 0.192,-0.192 V 0 c 0,-0.112 -0.08,-0.192 -0.192,-0.192 H 0.192 C 0.08,-0.192 0,-0.112 0,0"
             style="fill:#243061;fill-opacity:1;fill-rule:nonzero;stroke:none"
             id="path602" />
        </g>
        <g
           id="g604"
           transform="translate(226.1064,138.957)">
          <path
             d="m 0,0 h 1.873 c 0.111,0 0.191,-0.08 0.191,-0.192 v -7.843 c 0,-0.112 -0.08,-0.193 -0.191,-0.193 H 0 c -0.112,0 -0.192,0.081 -0.192,0.193 v 0.399 c 0,0.065 -0.048,0.08 -0.096,0.032 -0.384,-0.511 -0.977,-0.736 -1.713,-0.736 -1.36,0 -2.497,0.801 -2.497,2.594 v 5.554 c 0,0.112 0.08,0.192 0.192,0.192 h 1.873 c 0.112,0 0.192,-0.08 0.192,-0.192 v -5.027 c 0,-0.736 0.352,-1.2 1.008,-1.2 0.641,0 1.041,0.481 1.041,1.232 v 4.995 C -0.192,-0.08 -0.112,0 0,0"
             style="fill:#243061;fill-opacity:1;fill-rule:nonzero;stroke:none"
             id="path606" />
        </g>
        <g
           id="g608"
           transform="translate(229.3677,133.002)">
          <path
             d="M 0,0 V 0.129 C 0,0.24 0.08,0.32 0.192,0.32 h 1.777 c 0.112,0 0.192,-0.048 0.192,-0.111 V 0.097 c 0,-0.465 0.464,-0.801 1.089,-0.801 0.576,0 0.96,0.305 0.96,0.704 0,0.625 -1.008,0.705 -1.969,1.089 C 1.265,1.425 0.08,2.001 0.08,3.521 c 0,1.585 1.249,2.546 3.089,2.546 1.921,0 3.154,-1.041 3.154,-2.609 0,-0.112 -0.08,-0.176 -0.192,-0.176 H 4.418 c -0.112,0 -0.192,0.064 -0.192,0.128 v 0.111 c 0,0.449 -0.4,0.786 -1.024,0.786 C 2.625,4.307 2.241,3.986 2.241,3.586 2.241,2.962 3.153,2.834 4.066,2.514 5.187,2.146 6.467,1.602 6.467,0.08 6.467,-1.472 5.187,-2.385 3.266,-2.385 1.265,-2.385 0,-1.408 0,0"
             style="fill:#243061;fill-opacity:1;fill-rule:nonzero;stroke:none"
             id="path610" />
        </g>
        <g
           id="g612"
           transform="translate(237.0156,130.9219)">
          <path
             d="m 0,0 v 7.843 c 0,0.112 0.08,0.192 0.192,0.192 h 1.873 c 0.112,0 0.192,-0.08 0.192,-0.192 V 0 c 0,-0.112 -0.08,-0.192 -0.192,-0.192 H 0.192 C 0.08,-0.192 0,-0.112 0,0 m -0.208,10.164 c 0,0.784 0.544,1.328 1.344,1.328 0.801,0 1.345,-0.544 1.345,-1.328 0,-0.801 -0.544,-1.345 -1.345,-1.345 -0.8,0 -1.344,0.544 -1.344,1.345"
             style="fill:#243061;fill-opacity:1;fill-rule:nonzero;stroke:none"
             id="path614" />
        </g>
        <g
           id="g616"
           transform="translate(245.2095,133.5947)">
          <path
             d="m 0,0 c 0.048,0.384 0.064,0.832 0.064,1.265 0,0.448 -0.016,0.88 -0.064,1.248 -0.096,0.64 -0.512,1.041 -1.104,1.041 -0.608,0 -1.009,-0.417 -1.105,-1.041 -0.048,-0.368 -0.08,-0.8 -0.08,-1.248 0,-0.449 0.032,-0.881 0.064,-1.265 0.112,-0.641 0.528,-1.057 1.121,-1.057 0.592,0 1.008,0.416 1.104,1.057 m -4.434,-0.336 c -0.064,0.448 -0.112,1.088 -0.112,1.601 0,0.511 0.032,1.168 0.112,1.616 0.256,1.585 1.473,2.609 3.346,2.609 1.84,0 3.057,-1.024 3.297,-2.593 0.08,-0.464 0.128,-1.104 0.128,-1.617 0,-0.511 -0.048,-1.136 -0.112,-1.584 -0.24,-1.665 -1.456,-2.689 -3.329,-2.689 -1.857,0 -3.089,1.008 -3.33,2.657"
             style="fill:#243061;fill-opacity:1;fill-rule:nonzero;stroke:none"
             id="path618" />
        </g>
        <g
           id="g620"
           transform="translate(255.3862,136.2676)">
          <path
             d="m 0,0 v -5.346 c 0,-0.112 -0.08,-0.192 -0.192,-0.192 h -1.872 c -0.113,0 -0.193,0.08 -0.193,0.192 v 5.026 c 0,0.736 -0.384,1.201 -1.008,1.201 -0.64,0 -1.041,-0.481 -1.041,-1.217 v -5.01 c 0,-0.112 -0.08,-0.192 -0.192,-0.192 H -6.37 c -0.112,0 -0.192,0.08 -0.192,0.192 v 7.843 c 0,0.112 0.08,0.192 0.192,0.192 h 1.872 c 0.112,0 0.192,-0.08 0.192,-0.192 V 2.065 c 0,-0.064 0.049,-0.08 0.113,-0.016 0.432,0.56 1.04,0.768 1.696,0.768 C -0.928,2.817 0,1.761 0,0"
             style="fill:#243061;fill-opacity:1;fill-rule:nonzero;stroke:none"
             id="path622" />
        </g>
        <g
           id="g624"
           transform="translate(88.4839,211.8877)">
          <path
             d="m 0,0 v -11.841 c 0,-0.179 0.119,-0.298 0.298,-0.298 h 6.248 c 3.331,0 5.594,2.381 5.594,6.129 0,3.868 -2.263,6.308 -5.594,6.308 H 0.298 C 0.119,0.298 0,0.18 0,0 m 12.14,-34.871 -6.488,17.139 c -0.058,0.12 -0.176,0.238 -0.295,0.238 H 0.298 C 0.119,-17.494 0,-17.612 0,-17.792 V -34.75 c 0,-0.417 -0.298,-0.715 -0.714,-0.715 H -6.19 c -0.414,0 -0.712,0.298 -0.712,0.715 V 5.535 c 0,0.416 0.298,0.715 0.712,0.715 H 7.556 c 6.905,0 11.486,-4.94 11.486,-12.141 0,-5.296 -2.558,-9.164 -6.665,-10.769 -0.179,-0.061 -0.237,-0.238 -0.179,-0.417 l 7.024,-17.555 c 0.176,-0.475 0,-0.833 -0.536,-0.833 h -5.712 c -0.417,0 -0.715,0.237 -0.834,0.594"
             style="fill:#28ad7a;fill-opacity:1;fill-rule:nonzero;stroke:none"
             id="path626" />
        </g>
        <g
           id="g628"
           transform="translate(137.2759,212.126)">
          <path
             d="m 0,0 h -16.544 c -0.177,0 -0.299,-0.118 -0.299,-0.298 v -11.186 c 0,-0.18 0.122,-0.298 0.299,-0.298 h 10.591 c 0.417,0 0.715,-0.297 0.715,-0.714 v -4.523 c 0,-0.417 -0.298,-0.713 -0.715,-0.713 h -10.591 c -0.177,0 -0.299,-0.119 -0.299,-0.298 v -11.425 c 0,-0.178 0.122,-0.299 0.299,-0.299 H 0 c 0.417,0 0.712,-0.297 0.712,-0.713 v -4.521 c 0,-0.417 -0.295,-0.715 -0.712,-0.715 h -23.03 c -0.417,0 -0.715,0.298 -0.715,0.715 V 5.236 c 0,0.418 0.298,0.715 0.715,0.715 H 0 c 0.417,0 0.712,-0.297 0.712,-0.715 V 0.714 C 0.712,0.299 0.417,0 0,0"
             style="fill:#28ad7a;fill-opacity:1;fill-rule:nonzero;stroke:none"
             id="path630" />
        </g>
        <g
           id="g632"
           transform="translate(143.1621,188.5625)">
          <path
             d="m 0,0 v 17.494 c 0,7.558 5.235,12.495 13.092,12.495 7.854,0 13.09,-4.819 13.09,-12.257 v -0.357 c 0,-0.417 -0.298,-0.774 -0.712,-0.774 l -5.537,-0.237 c -0.417,0 -0.715,0.297 -0.715,0.713 v 0.715 c 0,3.749 -2.44,6.248 -6.126,6.248 -3.751,0 -6.191,-2.499 -6.191,-6.248 v -18.27 c 0,-3.687 2.44,-6.187 6.191,-6.187 3.686,0 6.126,2.5 6.126,6.187 v 0.775 c 0,0.475 0.24,0.655 0.715,0.655 L 25.47,0.714 c 0.414,0 0.712,-0.178 0.712,-0.477 v -0.476 c 0,-7.498 -5.236,-12.377 -13.09,-12.377 C 5.235,-12.616 0,-7.616 0,0"
             style="fill:#28ad7a;fill-opacity:1;fill-rule:nonzero;stroke:none"
             id="path634" />
        </g>
        <g
           id="g636"
           transform="translate(194.5132,188.5625)">
          <path
             d="m 0,0 v 17.257 c 0,4.045 -2.559,6.783 -6.428,6.783 -3.808,0 -6.305,-2.738 -6.305,-6.783 V 0 c 0,-3.987 2.497,-6.726 6.305,-6.726 C -2.559,-6.726 0,-3.987 0,0 m -19.638,0.297 v 16.78 c 0,7.736 5.296,12.912 13.21,12.912 8.034,0 13.33,-5.176 13.33,-12.912 V 0.297 c 0,-7.795 -5.296,-12.972 -13.33,-12.972 -7.914,0 -13.21,5.177 -13.21,12.972"
             style="fill:#28ad7a;fill-opacity:1;fill-rule:nonzero;stroke:none"
             id="path638" />
        </g>
        <g
           id="g640"
           transform="translate(280.5869,212.126)">
          <path
             d="m 0,0 h -16.543 c -0.18,0 -0.297,-0.118 -0.297,-0.298 v -11.186 c 0,-0.18 0.117,-0.298 0.297,-0.298 h 10.592 c 0.418,0 0.715,-0.297 0.715,-0.714 v -4.523 c 0,-0.417 -0.297,-0.713 -0.715,-0.713 h -10.592 c -0.18,0 -0.297,-0.119 -0.297,-0.298 v -11.425 c 0,-0.178 0.117,-0.299 0.297,-0.299 H 0 c 0.416,0 0.715,-0.297 0.715,-0.713 v -4.521 c 0,-0.417 -0.299,-0.715 -0.715,-0.715 h -23.027 c -0.418,0 -0.715,0.298 -0.715,0.715 V 5.236 c 0,0.418 0.297,0.715 0.715,0.715 H 0 c 0.416,0 0.715,-0.297 0.715,-0.715 V 0.714 C 0.715,0.299 0.416,0 0,0"
             style="fill:#28ad7a;fill-opacity:1;fill-rule:nonzero;stroke:none"
             id="path642" />
        </g>
        <g
           id="g644"
           transform="translate(286.4717,188.5625)">
          <path
             d="m 0,0 v 17.494 c 0,7.558 5.238,12.495 13.094,12.495 7.853,0 13.092,-4.819 13.092,-12.257 v -0.357 c 0,-0.417 -0.299,-0.774 -0.715,-0.774 l -5.534,-0.237 c -0.417,0 -0.714,0.297 -0.714,0.713 v 0.715 c 0,3.749 -2.44,6.248 -6.129,6.248 -3.748,0 -6.188,-2.499 -6.188,-6.248 v -18.27 c 0,-3.687 2.44,-6.187 6.188,-6.187 3.689,0 6.129,2.5 6.129,6.187 v 0.775 c 0,0.475 0.236,0.655 0.714,0.655 l 5.534,-0.238 c 0.416,0 0.715,-0.178 0.715,-0.477 v -0.476 c 0,-7.498 -5.239,-12.377 -13.092,-12.377 C 5.238,-12.616 0,-7.616 0,0"
             style="fill:#28ad7a;fill-opacity:1;fill-rule:nonzero;stroke:none"
             id="path646" />
        </g>
        <g
           id="g648"
           transform="translate(343.8936,217.3623)">
          <path
             d="m 0,0 v -4.582 c 0,-0.415 -0.297,-0.713 -0.715,-0.713 h -9.223 c -0.179,0 -0.296,-0.119 -0.296,-0.299 v -34.631 c 0,-0.417 -0.299,-0.714 -0.715,-0.714 h -5.477 c -0.416,0 -0.711,0.297 -0.711,0.714 v 34.631 c 0,0.18 -0.121,0.299 -0.299,0.299 h -8.867 c -0.416,0 -0.715,0.298 -0.715,0.713 V 0 c 0,0.418 0.299,0.715 0.715,0.715 H -0.715 C -0.297,0.715 0,0.418 0,0"
             style="fill:#28ad7a;fill-opacity:1;fill-rule:nonzero;stroke:none"
             id="path650" />
        </g>
        <g
           id="g652"
           transform="translate(208.8799,176.4004)">
          <path
             d="M 0,0 H 5.439 C 5.856,0 6.154,0.298 6.154,0.716 L 6.094,26.58 c 0,0.297 0.243,0.357 0.361,0.058 L 19.846,-0.009 h 7.189 L 6.005,41.657 C 5.859,41.755 5.687,41.81 5.5,41.81 H 0 c -0.414,0 -0.715,-0.299 -0.715,-0.715 V 0.716 C -0.715,0.298 -0.414,0 0,0"
             style="fill:#28ad7a;fill-opacity:1;fill-rule:nonzero;stroke:none"
             id="path654" />
        </g>
        <g
           id="g656"
           transform="translate(249.3818,218.21)">
          <path
             d="M 0,0 H -5.439 C -5.854,0 -6.154,-0.299 -6.154,-0.715 V -26.46 c 0,-0.3 -0.241,-0.357 -0.358,-0.061 L -19.911,0.01 h -7.259 l 6.384,-12.649 14.452,-28.634 c 0.18,-0.357 0.48,-0.537 0.836,-0.537 H 0 c 0.414,0 0.715,0.298 0.715,0.716 V -0.715 C 0.715,-0.299 0.414,0 0,0"
             style="fill:#28ad7a;fill-opacity:1;fill-rule:nonzero;stroke:none"
             id="path658" />
        </g>
        <g
           id="g660"
           transform="translate(212.6611,301.7334)">
          <path
             d="m 0,0 c -4.487,0 -8.766,-0.92 -12.651,-2.58 l 12.407,-24.585 8.769,-17.377 c 0.111,-0.216 0.291,-0.325 0.51,-0.325 h 3.335 c 0.253,0 0.434,0.181 0.434,0.435 v 24.504 c 0,0.252 -0.181,0.434 -0.434,0.434 H 9.069 c -0.253,0 -0.433,-0.182 -0.433,-0.434 v -15.625 c 0,-0.18 -0.145,-0.217 -0.217,-0.036 L -7.422,-4.227 c 2.37,0.627 4.859,0.961 7.422,0.961 16.02,0 29.053,-13.033 29.053,-29.052 0,-10.565 -5.668,-19.827 -14.122,-24.911 l 1.475,-2.923 c 9.516,5.631 15.912,15.999 15.912,27.834 C 32.318,-14.498 17.82,0 0,0"
             style="fill:#243061;fill-opacity:1;fill-rule:nonzero;stroke:none"
             id="path662" />
        </g>
        <g
           id="g664"
           transform="translate(203.7896,282.2393)">
          <path
             d="m 0,0 h -3.337 c -0.252,0 -0.434,-0.182 -0.434,-0.434 v -24.503 c 0,-0.254 0.182,-0.436 0.434,-0.436 h 3.3 c 0.254,0 0.435,0.182 0.435,0.436 L 0.361,-9.242 c 0,0.179 0.146,0.217 0.22,0.035 l 15.907,-31.655 c -2.431,-0.659 -4.982,-1.015 -7.616,-1.015 -16.021,0 -29.053,13.033 -29.053,29.053 0,10.635 5.745,19.947 14.29,25.012 l -1.474,2.921 c -9.611,-5.607 -16.081,-16.026 -16.081,-27.933 0,-17.82 14.497,-32.318 32.318,-32.318 4.557,0 8.894,0.951 12.831,2.66 L 0.308,-0.092 C 0.218,-0.033 0.115,0 0,0"
             style="fill:#243061;fill-opacity:1;fill-rule:nonzero;stroke:none"
             id="path666" />
        </g>
      </g>
    </g>
  </g>
</svg>
