<?xml version="1.0" encoding="UTF-8" standalone="no"?>
<svg
   xmlns:dc="http://purl.org/dc/elements/1.1/"
   xmlns:cc="http://creativecommons.org/ns#"
   xmlns:rdf="http://www.w3.org/1999/02/22-rdf-syntax-ns#"
   xmlns:svg="http://www.w3.org/2000/svg"
   xmlns="http://www.w3.org/2000/svg"
   xmlns:sodipodi="http://sodipodi.sourceforge.net/DTD/sodipodi-0.dtd"
   xmlns:inkscape="http://www.inkscape.org/namespaces/inkscape"
   version="1.1"
   id="svg14732"
   xml:space="preserve"
   width="86.180664"
   height="86.181465"
   viewBox="0 0 86.180664 86.181467"
   sodipodi:docname="logo_simple.svg"
   inkscape:version="1.0.1 (c497b03c, 2020-09-10)"><metadata
     id="metadata14738"><rdf:RDF><cc:Work
         rdf:about=""><dc:format>image/svg+xml</dc:format><dc:type
           rdf:resource="http://purl.org/dc/dcmitype/StillImage" /><dc:title></dc:title></cc:Work></rdf:RDF></metadata><defs
     id="defs14736"><clipPath
       clipPathUnits="userSpaceOnUse"
       id="clipPath14748"><path
         d="M 0,425.2 H 425.2 V 0 H 0 Z"
         id="path14746" /></clipPath></defs><sodipodi:namedview
     pagecolor="#ffffff"
     bordercolor="#666666"
     borderopacity="1"
     objecttolerance="10"
     gridtolerance="10"
     guidetolerance="10"
     inkscape:pageopacity="0"
     inkscape:pageshadow="2"
     inkscape:window-width="808"
     inkscape:window-height="480"
     id="namedview14734"
     showgrid="false"
     inkscape:zoom="0.91672767"
     inkscape:cx="55.851776"
     inkscape:cy="137.88403"
     inkscape:window-x="0"
     inkscape:window-y="23"
     inkscape:window-maximized="0"
     inkscape:current-layer="g14744"
     inkscape:document-rotation="0" /><g
     id="g14740"
     inkscape:groupmode="layer"
     inkscape:label="RECONNECT-Logotype"
     transform="matrix(1.3333333,0,0,-1.3333333,-240.45813,402.31119)"><g
       id="g14742"><g
         id="g14744"
         clip-path="url(#clipPath14748)"><g
           id="g14918"
           transform="translate(212.6611,301.7334)"><path
             d="m 0,0 c -4.487,0 -8.766,-0.92 -12.651,-2.58 l 12.407,-24.585 8.769,-17.377 c 0.111,-0.216 0.291,-0.325 0.51,-0.325 h 3.335 c 0.253,0 0.434,0.181 0.434,0.435 v 24.504 c 0,0.252 -0.181,0.434 -0.434,0.434 H 9.069 c -0.253,0 -0.433,-0.182 -0.433,-0.434 v -15.625 c 0,-0.18 -0.145,-0.217 -0.217,-0.036 L -7.422,-4.227 c 2.37,0.627 4.859,0.961 7.422,0.961 16.02,0 29.053,-13.033 29.053,-29.052 0,-10.565 -5.668,-19.827 -14.122,-24.911 l 1.475,-2.923 c 9.516,5.631 15.912,15.999 15.912,27.834 C 32.318,-14.498 17.82,0 0,0"
             style="fill:#9ba4ba;fill-opacity:1;fill-rule:nonzero;stroke:none"
             id="path14920" /></g><g
           id="g14922"
           transform="translate(203.7896,282.2393)"><path
             d="m 0,0 h -3.337 c -0.252,0 -0.434,-0.182 -0.434,-0.434 v -24.503 c 0,-0.254 0.182,-0.436 0.434,-0.436 h 3.3 c 0.254,0 0.435,0.182 0.435,0.436 L 0.361,-9.242 c 0,0.179 0.146,0.217 0.22,0.035 l 15.907,-31.655 c -2.431,-0.659 -4.982,-1.015 -7.616,-1.015 -16.021,0 -29.053,13.033 -29.053,29.053 0,10.635 5.745,19.947 14.29,25.012 l -1.474,2.921 c -9.611,-5.607 -16.081,-16.026 -16.081,-27.933 0,-17.82 14.497,-32.318 32.318,-32.318 4.557,0 8.894,0.951 12.831,2.66 L 0.308,-0.092 C 0.218,-0.033 0.115,0 0,0"
             style="fill:#9ba4ba;fill-opacity:1;fill-rule:nonzero;stroke:none"
             id="path14924" /></g></g></g></g></svg>
